<svg id="SvgjsSvg1001" width="360" height="360" xmlns="http://www.w3.org/2000/svg" version="1.1"
    xmlns:xlink="http://www.w3.org/1999/xlink" xmlns:svgjs="http://svgjs.com/svgjs">
    <defs id="SvgjsDefs1002"></defs>
    <g id="SvgjsG1008"><svg xmlns="http://www.w3.org/2000/svg" enable-background="new 0 0 2500 2500"
            viewBox="0 0 2500 2500" width="360" height="360">
            <circle cx="1250" cy="1250" r="1250" fill="none" class="selectable"></circle>
            <path fill="#030047" d="M2097.68,1978.61H422.32c-1.87,0-3.4-1.52-3.4-3.4c0-1.88,1.52-3.4,3.4-3.4h1675.37c1.88,0,3.4,1.52,3.4,3.4
				C2101.08,1977.09,2099.56,1978.61,2097.68,1978.61z" class="svgShape color030047-1 selectable"></path>
            <polygon fill="#e6f3fc" points="2038.82 1734.88 2076.74 620.72 1274.16 620.72 1236.25 1734.88"
                class="svgShape colore6f3fc-2 selectable"></polygon>
            <polygon fill="#030047" points="980.52 1974.27 968.2 1701.7 535.39 1754.75 518.79 1974.27"
                class="svgShape color030047-3 selectable"></polygon>
            <path fill="#fff" d="M933.49,1446.27l34.04,246.93c8.68,62.97,59.6,111.65,122.9,117.49l0,0c42.17,3.89,83.77-11.98,112.63-42.98
				l73.47-128.23l-131.82-99.52l-43.62,104.1l-1.04-209.23L933.49,1446.27z" class="svgShape colorffffff-4 selectable">
            </path>
            <path fill="#030047"
                d="M1102.74,1814.64c-4.21,0-8.41-0.19-12.63-0.58c-65.22-6.01-117.01-55.53-125.95-120.4l-34.04-246.93
				c-0.13-0.93,0.14-1.88,0.73-2.61c0.59-0.73,1.46-1.18,2.4-1.25l166.55-11.45c0.92-0.07,1.85,0.26,2.54,0.9
				c0.69,0.64,1.08,1.53,1.09,2.47l0.96,192.56l37.18-88.72c0.41-0.97,1.24-1.69,2.25-1.97c1-0.27,2.09-0.06,2.93,0.57l131.81,99.52
				c1.36,1.03,1.75,2.91,0.9,4.4L1206,1769.39c-0.13,0.23-0.29,0.44-0.46,0.63C1179.06,1798.46,1141.36,1814.64,1102.74,1814.64z
				 M937.35,1449.41l33.54,243.32c8.51,61.73,57.79,108.85,119.84,114.57c40.72,3.76,81.63-11.8,109.57-41.63l71.79-125.29
				l-125.94-95.09l-41.93,100.06c-0.63,1.49-2.22,2.33-3.79,2.02c-1.58-0.31-2.73-1.7-2.73-3.31l-1.02-205.61L937.35,1449.41z"
                class="svgShape color030047-5 selectable"></path>
            <path fill="#605efd" d="M905.11,1488.04l7.47-263.39l111.64,24.14c35.57,8.55,63.98,35.24,74.74,70.21l33.88,160.71L905.11,1488.04z
				" class="svgShape color605efd-6 selectable"></path>
            <path fill="#030047" d="M905.1,1491.44c-0.89,0-1.75-0.35-2.39-0.98c-0.67-0.66-1.03-1.57-1-2.51l4.79-169
				c0.05-1.88,1.63-3.33,3.49-3.3c1.87,0.05,3.35,1.62,3.3,3.49l-4.69,165.38l220.08-8.05l-33.05-156.76
				c-0.39-1.84,0.79-3.64,2.62-4.02c1.83-0.38,3.63,0.79,4.02,2.62l33.88,160.71c0.21,0.98-0.03,2-0.65,2.79
				c-0.62,0.79-1.55,1.27-2.55,1.3l-227.73,8.33C905.19,1491.44,905.15,1491.44,905.1,1491.44z"
                class="svgShape color030047-7 selectable"></path>
            <path fill="#605efd" d="M789.54,1206.37c-54.12-2.16-186.82,10.89-186.82,10.89c-25.54,3.3-64.5,28.17-65.29,53.91l-16.58,540.08
				h466.78l15.85-523.75c0.77-25.37-16.74-47.64-41.57-52.89C961.9,1234.62,839.77,1208.38,789.54,1206.37z"
                class="svgShape color605efd-8 selectable"></path>
            <g opacity=".4">
                <circle cx="775.96" cy="1376.62" r="13.8" fill="#605efd" class="svgShape color605efd-10 selectable">
                </circle>
                <path fill="#fff" d="M775.96,1393.81c-9.48,0-17.19-7.71-17.19-17.19c0-9.48,7.71-17.19,17.19-17.19
				c9.48,0,17.19,7.71,17.19,17.19C793.15,1386.1,785.44,1393.81,775.96,1393.81z M775.96,1366.22c-5.73,0-10.4,4.67-10.4,10.4
				c0,5.73,4.67,10.4,10.4,10.4c5.74,0,10.4-4.67,10.4-10.4C786.36,1370.88,781.7,1366.22,775.96,1366.22z"
                    class="svgShape colorffffff-11 selectable"></path>
            </g>
            <g opacity=".4">
                <circle cx="699.47" cy="1320.35" r="26.75" fill="#605efd" class="svgShape color605efd-13 selectable">
                </circle>
                <path fill="#fff" d="M699.47,1350.5c-16.62,0-30.15-13.52-30.15-30.15c0-16.62,13.52-30.15,30.15-30.15
				c16.62,0,30.15,13.52,30.15,30.15C729.62,1336.98,716.09,1350.5,699.47,1350.5z M699.47,1297c-12.88,0-23.36,10.48-23.36,23.36
				s10.48,23.36,23.36,23.36c12.88,0,23.36-10.48,23.36-23.36S712.35,1297,699.47,1297z"
                    class="svgShape colorffffff-14 selectable"></path>
            </g>
            <g opacity=".4">
                <circle cx="871.35" cy="1323.36" r="17.39" fill="#605efd" class="svgShape color605efd-16 selectable">
                </circle>
                <path fill="#fff" d="M871.35,1344.15c-11.46,0-20.79-9.32-20.79-20.78c0-11.46,9.32-20.79,20.79-20.79s20.79,9.32,20.79,20.79
				C892.14,1334.82,882.81,1344.15,871.35,1344.15z M871.35,1309.37c-7.72,0-13.99,6.28-13.99,13.99c0,7.72,6.28,13.99,13.99,13.99
				c7.72,0,13.99-6.28,13.99-13.99C885.35,1315.65,879.07,1309.37,871.35,1309.37z"
                    class="svgShape colorffffff-17 selectable"></path>
            </g>
            <g opacity=".4">
                <circle cx="756.65" cy="1500.26" r="30.43" fill="#605efd" class="svgShape color605efd-19 selectable">
                </circle>
                <path fill="#fff" d="M756.65,1534.09c-18.65,0-33.83-15.17-33.83-33.83s15.17-33.83,33.83-33.83s33.83,15.17,33.83,33.83
				S775.3,1534.09,756.65,1534.09z M756.65,1473.23c-14.91,0-27.03,12.13-27.03,27.03c0,14.91,12.13,27.03,27.03,27.03
				c14.91,0,27.04-12.13,27.04-27.03C783.69,1485.36,771.56,1473.23,756.65,1473.23z"
                    class="svgShape colorffffff-20 selectable"></path>
            </g>
            <g opacity=".4">
                <circle cx="921.06" cy="1443.53" r="20.95" fill="#605efd" class="svgShape color605efd-22 selectable">
                </circle>
                <path fill="#fff" d="M921.07,1467.88c-13.43,0-24.35-10.92-24.35-24.35c0-13.43,10.92-24.35,24.35-24.35
				c13.43,0,24.35,10.92,24.35,24.35C945.42,1456.95,934.49,1467.88,921.07,1467.88z M921.07,1425.97
				c-9.68,0-17.56,7.88-17.56,17.56c0,9.68,7.88,17.56,17.56,17.56c9.68,0,17.56-7.88,17.56-17.56
				C938.62,1433.84,930.75,1425.97,921.07,1425.97z" class="svgShape colorffffff-23 selectable"></path>
            </g>
            <g opacity=".4">
                <circle cx="685.09" cy="1660.54" r="21.07" fill="#605efd" class="svgShape color605efd-25 selectable">
                </circle>
                <path fill="#fff" d="M685.09,1685.01c-13.49,0-24.46-10.97-24.46-24.46s10.98-24.46,24.46-24.46c13.49,0,24.46,10.97,24.46,24.46
				S698.58,1685.01,685.09,1685.01z M685.09,1642.87c-9.74,0-17.67,7.93-17.67,17.67c0,9.74,7.93,17.67,17.67,17.67
				c9.74,0,17.67-7.93,17.67-17.67C702.76,1650.8,694.83,1642.87,685.09,1642.87z"
                    class="svgShape colorffffff-26 selectable"></path>
            </g>
            <g opacity=".4">
                <circle cx="883.94" cy="1695.29" r="42.92" fill="#605efd" class="svgShape color605efd-28 selectable">
                </circle>
                <path fill="#fff" d="M883.94,1741.61c-25.54,0-46.32-20.78-46.32-46.32c0-25.54,20.78-46.32,46.32-46.32
				c25.54,0,46.32,20.78,46.32,46.32C930.26,1720.83,909.48,1741.61,883.94,1741.61z M883.94,1655.76
				c-21.8,0-39.53,17.73-39.53,39.53c0,21.8,17.73,39.53,39.53,39.53c21.8,0,39.53-17.73,39.53-39.53
				C923.47,1673.49,905.73,1655.76,883.94,1655.76z" class="svgShape colorffffff-29 selectable"></path>
            </g>
            <g opacity=".4">
                <circle cx="741.27" cy="1757.51" r="11.7" fill="#605efd" class="svgShape color605efd-31 selectable">
                </circle>
                <path fill="#fff" d="M741.27,1772.61c-8.33,0-15.1-6.77-15.1-15.1c0-8.33,6.77-15.1,15.1-15.1s15.1,6.77,15.1,15.1
				C756.37,1765.84,749.6,1772.61,741.27,1772.61z M741.27,1749.2c-4.58,0-8.31,3.73-8.31,8.31c0,4.58,3.73,8.31,8.31,8.31
				c4.58,0,8.31-3.73,8.31-8.31C749.58,1752.93,745.85,1749.2,741.27,1749.2z"
                    class="svgShape colorffffff-32 selectable"></path>
            </g>
            <g opacity=".4">
                <circle cx="657.97" cy="1554.89" r="16.05" fill="#605efd" class="svgShape color605efd-34 selectable">
                </circle>
                <path fill="#fff" d="M657.97,1574.34c-10.73,0-19.45-8.72-19.45-19.45c0-10.72,8.72-19.45,19.45-19.45
				c10.73,0,19.45,8.72,19.45,19.45C677.42,1565.61,668.69,1574.34,657.97,1574.34z M657.97,1542.23c-6.98,0-12.66,5.68-12.66,12.66
				s5.68,12.66,12.66,12.66c6.98,0,12.66-5.68,12.66-12.66S664.95,1542.23,657.97,1542.23z"
                    class="svgShape colorffffff-35 selectable"></path>
            </g>
            <g opacity=".4">
                <circle cx="1057.41" cy="1320.98" r="12.17" fill="#605efd" class="svgShape color605efd-37 selectable">
                </circle>
                <path fill="#fff" d="M1057.41,1336.54c-8.58,0-15.56-6.98-15.56-15.56s6.98-15.56,15.56-15.56s15.56,6.98,15.56,15.56
				S1065.99,1336.54,1057.41,1336.54z M1057.41,1312.21c-4.84,0-8.77,3.93-8.77,8.77c0,4.84,3.94,8.77,8.77,8.77
				s8.77-3.93,8.77-8.77C1066.18,1316.14,1062.24,1312.21,1057.41,1312.21z" class="svgShape colorffffff-38 selectable">
                </path>
            </g>
            <g opacity=".4">
                <circle cx="1058.06" cy="1428.92" r="14.6" fill="#605efd" class="svgShape color605efd-40 selectable">
                </circle>
                <path fill="#fff" d="M1058.06,1446.92c-9.92,0-18-8.07-18-18c0-9.92,8.07-18,18-18c9.92,0,18,8.07,18,18
				C1076.06,1438.85,1067.98,1446.92,1058.06,1446.92z M1058.06,1417.72c-6.18,0-11.21,5.03-11.21,11.21s5.03,11.21,11.21,11.21
				c6.18,0,11.21-5.03,11.21-11.21S1064.24,1417.72,1058.06,1417.72z" class="svgShape colorffffff-41 selectable"></path>
            </g>
            <path fill="#030047"
                d="M987.62,1799.61c-0.04,0-0.07,0-0.1,0c-1.87-0.06-3.35-1.62-3.29-3.49l13.96-470.43
				c0.06-1.88,1.63-3.36,3.5-3.29c1.87,0.06,3.35,1.62,3.29,3.49l-13.96,470.43C990.96,1798.15,989.45,1799.61,987.62,1799.61z"
                class="svgShape color030047-42 selectable"></path>
            <path fill="#ffcc3d" d="M934.19,1713.25l310.53,0c14.44,0,27.26-12.06,30.3-28.48l43.07-232.96c3.83-20.7-9.23-39.52-27.43-39.52
				l-310.53,0c-14.44,0-27.26,12.06-30.3,28.48l-43.07,232.96C902.93,1694.44,915.99,1713.25,934.19,1713.25z"
                class="svgShape colorffcc3d-43 selectable"></path>
            <path fill="#030047" d="M1244.72,1716.65H934.19l0,0c-8.86,0-17.01-3.93-22.95-11.07c-7.08-8.51-10.01-20.65-7.82-32.47
				l43.07-232.96c3.35-18.11,17.5-31.26,33.64-31.26h310.53c8.86,0,17.01,3.93,22.95,11.07c7.08,8.51,10.01,20.65,7.82,32.47
				l-43.07,232.96C1275.01,1703.5,1260.87,1716.65,1244.72,1716.65z M934.19,1709.86h310.53c12.87,0,24.21-10.81,26.96-25.71
				l43.07-232.96c1.82-9.86-0.56-19.91-6.37-26.89c-4.62-5.56-10.92-8.62-17.73-8.62H980.14c-12.87,0-24.21,10.81-26.96,25.71
				l-43.07,232.96c-1.82,9.86,0.56,19.91,6.37,26.89C921.09,1706.79,927.39,1709.86,934.19,1709.86L934.19,1709.86z"
                class="svgShape color030047-44 selectable"></path>
            <ellipse cx="1141.15" cy="1555.03" fill="#fff" rx="36.52" ry="32.47"
                transform="rotate(-41.453 1141.191 1555.066)" class="svgShape colorffffff-45 selectable"></ellipse>
            <path fill="#fff" d="M432.15,1811.84c24.72,22.82,56.88,35.05,89.66,35.05c12.3,0,24.72-1.74,36.86-5.26l334.27-103.34
				c0,0,33.17-7.96,93.7-36.13c62.07-28.9,80.03-71.21,97.98-107.15c17.95-35.9-11.7-44.48-11.7-44.48
				c17.16-37.09-10.16-41.39-10.16-41.39c0.1-0.26,0.16-0.53,0.23-0.79c5.19-17.89-17.56-30.45-30.15-16.7l-14.57,15.95l7.4-20.29
				c0.66-1.81,0.95-3.65,0.95-5.49c0-4.47-1.84-8.84-5.26-11.97c-7-6.35-17.98-5.33-23.71,2.2l-71.35,86.39l7.23-44.09l-36.29,3.3
				c-16.64,0.79-32.12,8.68-42.51,21.67l-21.5,26.83l-243.1,58.95l18.45-127.91l-198.18-14.15l-20.76,226
				C388,1747.89,403.55,1785.47,432.15,1811.84z" class="svgShape colorffffff-46 selectable"></path>
            <path fill="#030047" d="M521.81,1850.28c-34.18,0-66.84-12.77-91.96-35.95l0,0c-29.4-27.1-45.29-65.54-43.6-105.45l20.78-226.17
				c0.17-1.84,1.79-3.21,3.62-3.08l198.18,14.15c0.94,0.07,1.81,0.52,2.4,1.26c0.59,0.73,0.85,1.68,0.72,2.61l-17.74,122.95
				l237.1-57.5l20.78-25.92c10.99-13.74,27.4-22.1,45-22.94l36.14-3.29c1.05-0.1,2.08,0.3,2.79,1.07c0.72,0.77,1.04,1.83,0.87,2.86
				l-5.2,31.69l63.35-76.7c3.21-4.24,8.23-7.02,13.68-7.52c5.45-0.5,10.89,1.3,14.93,4.97c4.06,3.71,6.38,8.98,6.38,14.48
				c0,2.3-0.39,4.54-1.16,6.65l-1.52,4.15l2.98-3.26c7.84-8.55,18.71-8.23,26.03-4.12c6.66,3.74,12.16,11.7,10.47,21.53
				c3.59,1.32,9.05,4.24,12.37,10.46c4.23,7.91,3.63,18.49-1.77,31.47c4.07,1.96,10.61,6.18,14.07,14.1
				c4.03,9.21,2.74,20.56-3.85,33.74l-3.16,6.36c-17.3,34.99-36.91,74.64-96.43,102.35c-60.15,28-92.97,36.03-94.34,36.36
				l-334.06,103.28C547.27,1848.47,534.55,1850.28,521.81,1850.28z M413.48,1486.65l-20.46,222.69c-1.59,37.75,13.5,74.26,41.43,100
				c0,0,0,0,0,0c23.86,22.02,54.88,34.15,87.35,34.15c12.1,0,24.18-1.72,35.91-5.13l334.22-103.32c0.54-0.14,33.84-8.3,93.27-35.97
				c57.36-26.7,76.4-65.22,93.2-99.2l3.17-6.39c5.62-11.25,6.88-20.64,3.73-27.91c-3.84-8.88-13.26-11.77-13.35-11.8
				c-0.94-0.28-1.73-0.96-2.13-1.86c-0.4-0.9-0.41-1.93,0.01-2.83c5.66-12.22,6.84-22.11,3.42-28.61c-3.51-6.67-10.97-8-11.04-8.01
				c-1-0.17-1.88-0.77-2.38-1.65c-0.51-0.88-0.61-1.93-0.26-2.88c0.06-0.15,0.09-0.3,0.12-0.44c2.33-8.03-2.14-13.81-6.66-16.36
				c-4.61-2.59-12.01-3.42-17.69,2.78l-14.56,15.94c-1.1,1.2-2.88,1.45-4.27,0.61c-1.39-0.84-1.99-2.54-1.43-4.07l7.4-20.29
				c0.5-1.36,0.75-2.82,0.75-4.33c0-3.6-1.51-7.05-4.15-9.46c-2.66-2.41-6.11-3.56-9.73-3.23c-3.61,0.33-6.8,2.1-8.98,4.98
				l-71.44,86.5c-0.97,1.18-2.62,1.56-4.02,0.93c-1.4-0.64-2.2-2.13-1.95-3.64l6.52-39.76l-31.92,2.91
				c-15.81,0.75-30.39,8.19-40.17,20.41l-21.5,26.83c-0.47,0.59-1.12,1-1.85,1.18l-243.1,58.95c-1.09,0.26-2.25-0.03-3.09-0.79
				c-0.83-0.76-1.24-1.88-1.07-3l17.93-124.3L413.48,1486.65z" class="svgShape color030047-47 selectable"></path>
            <path fill="#fff" d="M1018.97,1505.36c0,0-16.98,48.21-38.45,65.58"
                class="svgShape colorffffff-48 selectable"></path>
            <path fill="#030047" d="M980.52,1574.34c-0.99,0-1.97-0.43-2.64-1.26c-1.18-1.46-0.96-3.6,0.5-4.78
				c20.47-16.56,37.22-63.6,37.38-64.07c0.62-1.77,2.56-2.7,4.33-2.07c1.77,0.62,2.7,2.56,2.08,4.33
				c-0.71,2.01-17.55,49.32-39.52,67.09C982.03,1574.09,981.27,1574.34,980.52,1574.34z"
                class="svgShape color030047-49 selectable"></path>
            <path fill="#fff" d="M1062.27,1509.28c0,0-8.98,47.23-55.43,85.49"
                class="svgShape colorffffff-50 selectable"></path>
            <path fill="#030047" d="M1006.84,1598.16c-0.98,0-1.95-0.42-2.62-1.24c-1.19-1.45-0.98-3.59,0.46-4.78
				c44.88-36.96,54.16-83.04,54.25-83.5c0.35-1.84,2.15-3.05,3.97-2.7c1.84,0.35,3.05,2.13,2.7,3.97
				c-0.38,1.98-9.75,48.88-56.61,87.48C1008.36,1597.91,1007.6,1598.16,1006.84,1598.16z"
                class="svgShape color030047-51 selectable"></path>
            <path fill="#fff" d="M1071.8,1551.85c0,0-6.75,40.81-44.5,66.95" class="svgShape colorffffff-52 selectable">
            </path>
            <path fill="#030047" d="M1027.31,1622.19c-1.08,0-2.14-0.51-2.79-1.46c-1.07-1.54-0.68-3.66,0.86-4.73
				c36.15-25.03,43.02-64.31,43.08-64.71c0.3-1.85,2.04-3.1,3.9-2.8c1.85,0.31,3.1,2.05,2.79,3.91
				c-0.29,1.72-7.43,42.54-45.92,69.18C1028.65,1622,1027.97,1622.19,1027.31,1622.19z"
                class="svgShape color030047-53 selectable"></path>
            <path fill="#605efd" d="M602.71,1217.26l-78.33,12.41c-42.31,6.7-76.67,37.74-87.64,79.14l-47.14,177.98l232.56,28.28l10.55-134.71
				c2.94-23.75,1.23-47.84-5.03-70.94L602.71,1217.26z" class="svgShape color605efd-54 selectable"></path>
            <g opacity=".4">
                <circle cx="579.75" cy="1375.53" r="16.05" fill="#605efd" class="svgShape color605efd-56 selectable">
                </circle>
                <path fill="#fff" d="M579.75,1394.98c-10.72,0-19.45-8.72-19.45-19.45s8.72-19.45,19.45-19.45s19.45,8.72,19.45,19.45
				S590.48,1394.98,579.75,1394.98z M579.75,1362.87c-6.98,0-12.66,5.68-12.66,12.66s5.68,12.66,12.66,12.66
				c6.98,0,12.65-5.68,12.65-12.66S586.73,1362.87,579.75,1362.87z" class="svgShape colorffffff-57 selectable"></path>
            </g>
            <g opacity=".4">
                <circle cx="529.26" cy="1302.3" r="26.42" fill="#605efd" class="svgShape color605efd-59 selectable">
                </circle>
                <path fill="#fff" d="M529.26,1332.11c-16.44,0-29.81-13.37-29.81-29.81c0-16.44,13.37-29.81,29.81-29.81s29.81,13.37,29.81,29.81
				C559.07,1318.74,545.7,1332.11,529.26,1332.11z M529.26,1279.27c-12.7,0-23.02,10.33-23.02,23.02
				c0,12.69,10.33,23.02,23.02,23.02s23.02-10.33,23.02-23.02C552.28,1289.6,541.95,1279.27,529.26,1279.27z"
                    class="svgShape colorffffff-60 selectable"></path>
            </g>
            <path fill="#030047" d="M622.17,1518.47c-0.14,0-0.27-0.01-0.41-0.02l-232.56-28.28c-0.98-0.12-1.85-0.65-2.4-1.47
				c-0.55-0.81-0.72-1.82-0.47-2.77l47.14-177.98c0.48-1.81,2.35-2.9,4.15-2.41c1.81,0.48,2.89,2.34,2.41,4.15l-46.14,174.21
				l225.17,27.38l10.27-131.18c0.15-1.87,1.8-3.27,3.65-3.12c1.87,0.15,3.27,1.78,3.12,3.65l-10.55,134.71
				c-0.07,0.92-0.52,1.78-1.23,2.36C623.71,1518.2,622.95,1518.47,622.17,1518.47z"
                class="svgShape color030047-61 selectable"></path>
            <line x1="592.67" x2="542.4" y1="1624.73" y2="1639.48" fill="#fff"
                class="svgShape colorffffff-62 selectable"></line>
            <path fill="#030047" d="M542.4,1642.87c-1.47,0-2.82-0.96-3.26-2.44c-0.53-1.8,0.5-3.69,2.3-4.22l50.27-14.75
				c1.79-0.53,3.68,0.5,4.21,2.3c0.53,1.8-0.5,3.69-2.3,4.22l-50.27,14.75C543.04,1642.83,542.71,1642.87,542.4,1642.87z"
                class="svgShape color030047-63 selectable"></path>
            <path fill="#fff" d="M708.71,1204.84l-5.8-158.38l148.27,16.68c0,0,4.02,149.28,3.9,149.41
				C827.24,1283.56,768.43,1280.17,708.71,1204.84z" class="svgShape colorffffff-64 selectable"></path>
            <path fill="#030047" d="M796.82,1267.04c-27.9,0-59.8-21.02-90.77-60.09c-0.45-0.57-0.71-1.26-0.73-1.99l-5.8-158.38
				c-0.04-0.99,0.36-1.94,1.09-2.61c0.73-0.67,1.69-0.99,2.69-0.88l148.27,16.68c1.68,0.19,2.97,1.59,3.01,3.28
				c3.4,125.99,3.95,146.61,3.44,150.65l0.23,0.09c-12.17,31.05-30.69,49.26-53.54,52.68
				C802.12,1266.85,799.49,1267.04,796.82,1267.04z M712.06,1203.6c32.14,40.24,64.64,60.18,91.65,56.14
				c20.16-3.01,36.74-19.55,47.98-47.83c-0.14-8.14-2.49-96.26-3.82-145.73l-141.42-15.91L712.06,1203.6z"
                class="svgShape color030047-65 selectable"></path>
            <path fill="#fff" d="M702.9,1046.47c-31.96-66.55-39.96-151.33-39.96-151.33l161.79-86.02c3.87,2.8,113.16,37.86,125.53,161.95
				c11.02,110.53-20.53,185.08-173.97,151.9" class="svgShape colorffffff-66 selectable"></path>
            <path fill="#030047" d="M842.15,1134.37c-19.52,0-41.66-2.7-66.58-8.09c-1.83-0.4-3-2.2-2.6-4.04c0.4-1.83,2.19-3,4.04-2.6
				c66.35,14.35,112.06,9.32,139.74-15.38c26.8-23.92,36.66-67.38,30.13-132.86c-7.14-71.58-49.78-127.55-120.06-157.6
				c-0.85-0.36-1.5-0.64-2.03-0.87l-158.24,84.13c1.54,13.83,10.94,88.68,39.4,147.94c0.81,1.69,0.1,3.72-1.59,4.53
				c-1.69,0.81-3.72,0.1-4.53-1.59c-31.86-66.34-40.2-151.63-40.28-152.48c-0.13-1.37,0.57-2.67,1.79-3.32l161.79-86.02
				c1.14-0.61,2.53-0.51,3.58,0.25c0.29,0.15,1.29,0.56,2.77,1.19c72.66,31.07,116.76,89.02,124.15,163.17
				c6.76,67.8-3.83,113.13-32.37,138.6C902.54,1126.05,876.39,1134.37,842.15,1134.37z"
                class="svgShape color030047-67 selectable"></path>
            <path fill="#030047" d="M954.2,795.11c0.63,21.73-6.95,43.61-20.9,60.27c-13.95,16.7-34.15,28.02-55.64,31.2
				c-17.21,2.59-34.81,0.12-52.1,1.89c-29.39,3.03-56.66,19.45-74.42,42.83c-4.56,6.01-8.53,12.46-11.71,19.25
				c-2.67,5.77,21.1,47.24,10.16,56.55c-5.24,4.47-26.15-11.28-25.13-11.28c-2.04,0.31-55.6,4.79-55.6,4.79
				s-75.99-71.24-52.46-119.84c23.5-48.64,66.52-39.92,66.52-39.92s-26.52-46.99-0.63-65.46c25.93-18.47,77.25,4.05,77.25,4.05
				l-0.35,4.09c5.03-25.89,30.02-44.13,55.83-49.43c25.85-5.34,52.57-0.43,78.47,4.48c17.76,3.38,36.93,7.54,48.76,21.26
				C950.51,769.42,953.81,782.46,954.2,795.11z" class="svgShape color030047-68 selectable"></path>
            <ellipse cx="904.19" cy="955.59" fill="#030047" rx="9.11" ry="13.59"
                transform="rotate(-23.292 904.29 955.686)" class="svgShape color030047-69 selectable"></ellipse>
            <path fill="#fff" d="M903.28,927.44c-9.66-0.61-18.98,5.24-23.64,14.85"
                class="svgShape colorffffff-70 selectable"></path>
            <path fill="#030047" d="M879.63,945.69c-0.5,0-1-0.11-1.48-0.34c-1.69-0.82-2.39-2.85-1.57-4.54c5.28-10.88,15.84-17.45,26.91-16.76
				c1.87,0.12,3.29,1.73,3.17,3.6c-0.12,1.87-1.69,3.29-3.6,3.18c-8.28-0.52-16.3,4.56-20.37,12.95
				C882.1,944.99,880.89,945.69,879.63,945.69z" class="svgShape color030047-71 selectable"></path>
            <ellipse cx="831.42" cy="986.84" fill="#030047" rx="9.11" ry="13.59"
                transform="rotate(-23.292 831.51 986.942)" class="svgShape color030047-72 selectable"></ellipse>
            <path fill="#fff" d="M830.51,958.69c-9.66-0.61-18.98,5.24-23.64,14.85"
                class="svgShape colorffffff-73 selectable"></path>
            <path fill="#030047" d="M806.86,976.94c-0.5,0-1-0.11-1.48-0.34c-1.69-0.82-2.39-2.85-1.57-4.54c5.28-10.88,15.83-17.46,26.91-16.76
				c1.87,0.12,3.29,1.73,3.17,3.6c-0.12,1.87-1.7,3.29-3.6,3.17c-8.25-0.52-16.3,4.56-20.37,12.95
				C809.33,976.24,808.12,976.94,806.86,976.94z" class="svgShape color030047-74 selectable"></path>
            <path fill="#fff" d="M724.19,994.27c0,0-47.87-34.7-69.7-22.83c-21.82,11.87-0.1,91.98,28.58,95.24
				c28.68,3.26,49.05-11.14,49.05-11.14" class="svgShape colorffffff-75 selectable"></path>
            <path fill="#030047" d="M691.62,1070.56c-2.88,0-5.86-0.16-8.94-0.51c-18.43-2.1-33.37-30.35-38.6-57.18
				c-4.37-22.45-1.09-39.05,8.78-44.42c23.44-12.74,71.29,21.59,73.31,23.06c1.52,1.1,1.86,3.22,0.76,4.74
				c-1.11,1.52-3.23,1.85-4.74,0.76c-12.84-9.3-49.74-31.49-66.08-22.6c-6.92,3.76-9.03,18.35-5.36,37.16
				c4.7,24.13,18.22,50.08,32.7,51.73c26.97,3.07,46.52-10.4,46.71-10.54c1.53-1.07,3.65-0.71,4.73,0.82
				c1.08,1.53,0.72,3.65-0.81,4.73C733.29,1058.87,716.43,1070.56,691.62,1070.56z"
                class="svgShape color030047-76 selectable"></path>
            <path fill="#030047" d="M680.31,1031.1c-1.1,0-2.17-0.53-2.83-1.51c-3.34-5-5.67-10.78-6.75-16.7c-0.92-5.08-0.23-8.87,2.11-11.6
				c1.97-2.3,5.06-3.61,8.5-3.52c2.44,0.07,4.95,0.82,7.67,2.3c3.43,1.86,6.5,4.48,8.89,7.56c1.15,1.48,0.88,3.62-0.61,4.76
				c-1.49,1.15-3.62,0.88-4.76-0.61c-1.82-2.35-4.15-4.34-6.76-5.76c-1.76-0.96-3.27-1.44-4.62-1.48c-1.31-0.05-2.51,0.4-3.15,1.15
				c-0.91,1.06-1.11,3.06-0.58,5.95c0.92,5.02,2.9,9.91,5.72,14.15c1.04,1.56,0.62,3.67-0.94,4.71
				C681.61,1030.92,680.95,1031.1,680.31,1031.1z" class="svgShape color030047-77 selectable"></path>
            <path fill="#fff" d="M868.7,968.96c4.22,9.98,16.37,36.89,20.59,46.87c2.55,6.02,5.13,12.28,4.35,18.59
				c-0.78,6.31-5.95,12.67-13.55,13.54" class="svgShape colorffffff-78 selectable"></path>
            <path fill="#030047"
                d="M880.09 1051.37c-1.7 0-3.17-1.28-3.37-3.01-.21-1.86 1.12-3.55 2.99-3.76 6.1-.7 10-5.98 10.57-10.59.68-5.52-1.87-11.54-4.11-16.85-2.1-4.98-6.19-14.18-10.27-23.38-4.1-9.24-8.2-18.49-10.32-23.49-.73-1.73.08-3.72 1.81-4.45 1.73-.73 3.72.08 4.45 1.81 2.1 4.98 6.19 14.18 10.27 23.38 4.1 9.24 8.2 18.49 10.32 23.49 2.58 6.1 5.5 13 4.59 20.33-.91 7.36-6.88 15.39-16.53 16.5C880.35 1051.36 880.22 1051.37 880.09 1051.37zM846.42 1086.24c-7.05 0-14.07-1.86-20.19-5.46-8.95-5.27-15.61-14.05-18.25-24.09-.48-1.81.6-3.67 2.42-4.15 1.82-.48 3.67.61 4.15 2.42 2.19 8.33 7.71 15.6 15.13 19.97 7.42 4.37 16.46 5.65 24.8 3.51 1.8-.46 3.67.63 4.13 2.45.46 1.82-.63 3.67-2.45 4.13C852.97 1085.84 849.69 1086.24 846.42 1086.24z"
                class="svgShape color030047-79 selectable"></path>
            <g opacity=".4">
                <circle cx="486.79" cy="1430.26" r="16.05" fill="#605efd" class="svgShape color605efd-81 selectable">
                </circle>
                <path fill="#fff" d="M486.78,1449.71c-10.73,0-19.45-8.72-19.45-19.45c0-10.72,8.72-19.45,19.45-19.45
				c10.73,0,19.45,8.72,19.45,19.45C506.23,1440.99,497.51,1449.71,486.78,1449.71z M486.78,1417.6c-6.98,0-12.66,5.68-12.66,12.66
				c0,6.98,5.68,12.66,12.66,12.66c6.98,0,12.66-5.68,12.66-12.66C499.44,1423.28,493.76,1417.6,486.78,1417.6z"
                    class="svgShape colorffffff-82 selectable"></path>
            </g>
            <circle cx="1656.49" cy="854.55" r="115.11" fill="#605efd" class="svgShape color605efd-83 selectable">
            </circle>
            <circle cx="1636.46" cy="1468.42" r="115.11" fill="#605efd" class="svgShape color605efd-84 selectable">
            </circle>
            <rect width="199.06" height="199.06" x="1546.95" y="1061.96" fill="#ffcc3d"
                transform="rotate(-45.001 1646.473 1161.512)" class="svgShape colorffcc3d-85 selectable"></rect>
            <path fill="#030047"
                d="M1461.77,1510.36c-0.22,0-0.44-0.02-0.66-0.07c-52.82-10.45-99.52-47.75-121.9-97.35
				c-22-48.75-19.7-108.6,5.99-156.18c25.64-47.48,72.94-81.95,126.54-92.23c1.82-0.36,3.62,0.85,3.98,2.7
				c0.35,1.84-0.86,3.62-2.7,3.97c-51.61,9.89-97.16,43.08-121.84,88.78c-24.71,45.76-26.92,103.29-5.78,150.16
				c21.49,47.63,66.33,83.44,117.03,93.48c1.84,0.36,3.04,2.15,2.67,3.99C1464.77,1509.24,1463.35,1510.36,1461.77,1510.36z"
                class="svgShape color030047-86 selectable"></path>
            <path fill="#030047" d="M1427.47,1518.65l13.96-45.76c2.61-8.56,13.8-10.58,19.24-3.48l25.01,32.63c4.59,5.98,1.93,14.7-5.21,17.11
				l-38.97,13.13C1433.02,1535.14,1424.86,1527.21,1427.47,1518.65z" class="svgShape color030047-87 selectable"></path>
            <path fill="#030047"
                d="M1427.47 1518.65l13.96-45.76c2.61-8.56 13.8-10.58 19.24-3.48l25.01 32.63c4.59 5.98 1.93 14.7-5.21 17.11l-38.97 13.13C1433.02 1535.14 1424.86 1527.21 1427.47 1518.65zM1855.92 1165.27c-1.59 0-3.01-1.12-3.33-2.74-.36-1.84.83-3.63 2.67-3.99 50.7-10.03 95.54-45.85 117.03-93.48 21.14-46.86 18.93-104.4-5.78-150.16-24.67-45.7-70.22-78.89-121.84-88.78-1.84-.35-3.05-2.13-2.7-3.97.35-1.84 2.13-3.05 3.98-2.7 53.6 10.27 100.9 44.75 126.54 92.23 25.69 47.58 27.99 107.43 5.99 156.18-22.37 49.59-69.09 86.89-121.9 97.35C1856.36 1165.24 1856.14 1165.27 1855.92 1165.27z"
                class="svgShape color030047-88 selectable"></path>
            <path fill="#030047"
                d="M1890.22 1173.56l-13.96-45.76c-2.61-8.56-13.8-10.58-19.24-3.48l-25.01 32.63c-4.59 5.98-1.93 14.7 5.21 17.11l38.97 13.13C1884.67 1190.05 1892.83 1182.12 1890.22 1173.56zM1465.48 913.47c0 25.58-10.37 48.72-27.12 65.47-16.71 16.75-39.89 27.12-65.43 27.12h-235.09c-51.12 0-92.6-41.43-92.6-92.6 0-25.58 10.37-48.68 27.12-65.43 16.75-16.75 39.94-27.12 65.47-27.12h235.09C1424.04 820.92 1465.48 862.35 1465.48 913.47z"
                class="svgShape color030047-89 selectable"></path>
            <circle cx="1149.64" cy="910.99" r="55.44" fill="#fff" class="svgShape colorffffff-90 selectable"></circle>
            <polyline fill="#fff" points="1122.18 916.54 1138.45 932.82 1177.1 894.17"
                class="svgShape colorffffff-91 selectable"></polyline>
            <polygon fill="#030047"
                points="1138.45 942.42 1117.38 921.34 1126.98 911.74 1138.45 923.21 1172.3 889.36 1181.9 898.97"
                class="svgShape color030047-92 selectable"></polygon>
            <rect width="60.92" height="28.79" x="1230.44" y="869.01" fill="#fff"
                class="svgShape colorffffff-93 selectable"></rect>
            <rect width="183.6" height="12.1" x="1230.44" y="915.33" fill="#fff"
                class="svgShape colorffffff-94 selectable"></rect>
            <rect width="73.02" height="12.1" x="1230.44" y="940.78" fill="#fff"
                class="svgShape colorffffff-95 selectable"></rect>
            <path fill="#605efd" d="M2250,1385.2c0,25.58-10.37,48.72-27.12,65.47c-16.75,16.75-39.89,27.12-65.48,27.12h-235.09
				c-51.12,0-92.6-41.48-92.6-92.6c0-25.58,10.37-48.68,27.12-65.43c16.75-16.75,39.89-27.12,65.48-27.12h235.09
				C2208.52,1292.65,2250,1334.08,2250,1385.2z" class="svgShape color605efd-96 selectable"></path>
            <circle cx="1934.12" cy="1382.7" r="55.44" fill="#fff" class="svgShape colorffffff-97 selectable"></circle>
            <polyline fill="#fff" points="1906.66 1388.26 1922.94 1404.53 1961.58 1365.88"
                class="svgShape colorffffff-98 selectable"></polyline>
            <polygon fill="#030047"
                points="1922.94 1414.14 1901.86 1393.06 1911.47 1383.46 1922.94 1394.93 1956.78 1361.08 1966.39 1370.69"
                class="svgShape color030047-99 selectable"></polygon>
            <rect width="60.92" height="28.79" x="2014.92" y="1340.73" fill="#fff"
                class="svgShape colorffffff-100 selectable"></rect>
            <rect width="183.6" height="12.1" x="2014.92" y="1387.05" fill="#fff"
                class="svgShape colorffffff-101 selectable"></rect>
            <rect width="73.02" height="12.1" x="2014.92" y="1412.5" fill="#fff"
                class="svgShape colorffffff-102 selectable"></rect>
            <path fill="#ffcc3d" d="M1872.63,706.54c-51.12,0-92.6-41.48-92.6-92.6c0-25.54,10.37-48.72,27.12-65.43
				c16.75-16.75,39.94-27.12,65.47-27.12h235.09c51.12,0,92.6,41.43,92.6,92.55c0,25.54-10.37,48.72-27.12,65.47
				c-16.75,16.75-39.94,27.12-65.47,27.12H1872.63z" class="svgShape colorffcc3d-103 selectable"></path>
            <circle cx="1884.45" cy="611.45" r="55.44" fill="#fff" class="svgShape colorffffff-104 selectable"></circle>
            <polyline fill="#fff" points="1856.99 617.01 1873.27 633.28 1911.91 594.63"
                class="svgShape colorffffff-105 selectable"></polyline>
            <polygon fill="#030047"
                points="1873.26 642.89 1852.19 621.81 1861.79 612.2 1873.26 623.67 1907.11 589.83 1916.72 599.43"
                class="svgShape color030047-106 selectable"></polygon>
            <rect width="60.92" height="28.79" x="1965.25" y="569.48" fill="#fff"
                class="svgShape colorffffff-107 selectable"></rect>
            <rect width="183.6" height="12.1" x="1965.25" y="615.79" fill="#fff"
                class="svgShape colorffffff-108 selectable"></rect>
            <rect width="73.02" height="12.1" x="1965.25" y="641.25" fill="#fff"
                class="svgShape colorffffff-109 selectable"></rect>
            <circle cx="530.4" cy="1052.65" r="31.89" fill="#030047" class="svgShape color030047-110 selectable">
            </circle>
            <path fill="#ffcc3d" d="M544.64,922.24c-9.68,21.57-8.14,46.57,4.05,66.81l1.53,2.55l-83.11,50.07l-1.53-2.55
				c-12.4-20.58-34.27-33.14-58.28-34.88c-43.76-3.17-85.37-26.84-109.74-67.29c-41.47-68.84-16.71-159.12,55.98-196.52
				c62.94-32.37,141.43-11.65,180.33,47.45C561.4,829.65,563.52,880.27,544.64,922.24z"
                class="svgShape colorffcc3d-111 selectable"></path>
            <path fill="#fff" d="M486.08,1021.78c-1.12,0-2.22-0.56-2.87-1.58l-62.28-98.12c-5.37,2.08-10.88,3.86-16.51,5.33l-21.44,5.61
				c-5.58,1.46-11.39,0.64-16.36-2.31c-4.96-2.95-8.45-7.66-9.84-13.27c-1.54-6.26-0.21-12.81,3.67-17.97
				c3.87-5.16,9.79-8.27,16.23-8.53c18.45-0.76,36.1,7.9,46.84,22.75c12.21-5.25,23.63-12.13,33.97-20.47
				c-8.11-16.44-7.5-36.08,1.78-52.04c3.25-5.57,8.76-9.35,15.13-10.37c6.38-1.02,12.79,0.87,17.6,5.16
				c4.31,3.84,6.84,9.13,7.13,14.9c0.29,5.77-1.7,11.29-5.6,15.54l-14.99,16.34c-3.92,4.28-8.07,8.31-12.41,12.09l57.63,100.92
				c0.93,1.63,0.36,3.7-1.26,4.63c-1.63,0.93-3.7,0.37-4.63-1.26l-57.04-99.88c-10.27,8.14-21.52,14.93-33.52,20.2l61.64,97.11
				c1,1.58,0.54,3.68-1.05,4.69C487.34,1021.61,486.71,1021.78,486.08,1021.78z M378.92,897.68c-0.65,0-1.3,0.01-1.95,0.04
				c-4.4,0.18-8.44,2.3-11.08,5.82c-2.64,3.52-3.56,7.99-2.51,12.27c0.94,3.83,3.33,7.04,6.72,9.06c3.39,2.01,7.36,2.57,11.17,1.58
				l21.44-5.61c4.86-1.27,9.63-2.79,14.3-4.53C407.91,904.63,393.81,897.68,378.92,897.68z M477.8,837.34
				c-0.77,0-1.54,0.06-2.32,0.18c-4.35,0.69-8.11,3.27-10.33,7.08c-7.85,13.49-8.62,29.99-2.28,44.08
				c3.72-3.31,7.29-6.81,10.68-10.51l14.99-16.34c2.66-2.9,4.02-6.67,3.82-10.61c-0.2-3.94-1.93-7.55-4.87-10.17
				C484.79,838.63,481.35,837.34,477.8,837.34z" class="svgShape colorffffff-112 selectable"></path>
            <path fill="#030047" d="M579.5,1019.39l-101.45,61.12c-1.45,0.87-3.33,0.41-4.21-1.04l-23.77-39.46c-0.87-1.45-0.41-3.33,1.04-4.21
				l101.45-61.12c1.45-0.87,3.33-0.41,4.21,1.04l23.77,39.46C581.42,1016.64,580.95,1018.52,579.5,1019.39z"
                class="svgShape color030047-113 selectable"></path>
            <rect width="11.47" height="23.62" x="320.02" y="704.38" fill="#ffcc3d"
                transform="rotate(-31.063 325.823 716.252)" class="svgShape colorffcc3d-114 selectable"></rect>
            <rect width="11.47" height="23.62" x="257.38" y="769.41" fill="#ffcc3d"
                transform="rotate(-61.066 263.13 781.212)" class="svgShape colorffcc3d-115 selectable"></rect>
            <rect width="11.47" height="23.62" x="406.78" y="679.39" fill="#ffcc3d"
                transform="rotate(-1.066 413.158 692.257)" class="svgShape colorffcc3d-116 selectable"></rect>
            <path fill="#ffcc3d"
                d="M1063.31 663.27l-21.33 13.42c-10.01 6.24-23.17 3.25-29.42-6.69l-13.43-21.33c-6.26-9.95-3.27-23.1 6.68-29.36l21.35-13.49c9.94-6.26 23.1-3.27 29.42 6.69l13.41 21.4C1076.24 643.85 1073.25 657 1063.31 663.27zM428.38 1191.7l-13.32 8.38c-6.25 3.9-14.46 2.03-18.37-4.18l-8.38-13.32c-3.91-6.21-2.04-14.42 4.17-18.33l13.33-8.43c6.21-3.91 14.42-2.04 18.37 4.18l8.37 13.36C436.46 1179.58 434.59 1187.79 428.38 1191.7zM686.9 635.59l-13.32 8.38c-6.25 3.9-14.46 2.03-18.37-4.18l-8.38-13.32c-3.91-6.21-2.04-14.42 4.17-18.33l13.33-8.43c6.21-3.91 14.42-2.04 18.37 4.18l8.37 13.36C694.97 623.47 693.11 631.68 686.9 635.59zM1150.78 1144.66l-13.32 8.38c-6.25 3.9-14.46 2.03-18.37-4.18l-8.38-13.32c-3.91-6.21-2.04-14.42 4.17-18.33l13.33-8.43c6.21-3.91 14.42-2.04 18.37 4.18l8.37 13.36C1158.86 1132.54 1156.99 1140.75 1150.78 1144.66z"
                class="svgShape colorffcc3d-117 selectable"></path>
        </svg></g>
</svg>