<svg id="SvgjsSvg1001" width="360" height="360" xmlns="http://www.w3.org/2000/svg" version="1.1"
    xmlns:xlink="http://www.w3.org/1999/xlink" xmlns:svgjs="http://svgjs.com/svgjs">
    <defs id="SvgjsDefs1002"></defs>
    <g id="SvgjsG1008"><svg xmlns="http://www.w3.org/2000/svg" enable-background="new 0 0 2500 2500"
            viewBox="0 0 2500 2500" width="360" height="360">
            <circle cx="1250" cy="1250" r="1250" fill="none" class="selectable"></circle>
            <path fill="#e6f3fc" d="M1824.8,551.96l1.04-93.54l-179.58-2l-1.04,93.54c-53.48,10.62-103.44,31.09-148.02,59.49l-65.42-66.98
				l-128.34,125.51l65.42,66.98c-29.29,43.94-50.95,93.43-62.77,146.66l-93.54-1.04l-2,179.49l93.54,1.04
				c10.62,53.57,31.18,103.53,59.48,148.02l-66.9,65.51l125.52,128.35l66.9-65.51c43.93,29.37,93.43,50.95,146.65,62.76l-1.04,93.63
				l179.58,2l1.04-93.63c53.48-10.62,103.44-31.1,148.02-59.48l65.42,66.98l128.34-125.52l-65.42-66.98
				c29.29-43.84,50.95-93.34,62.77-146.66l93.54,1.04l2-179.49l-93.54-1.04c-10.62-53.48-31.18-103.44-59.48-148.02l66.9-65.51
				l-125.52-128.34l-66.89,65.51 M1748.02,1228.42c-155.91,10.6-283.54-119.84-269.57-275.58
				c10.99-122.5,111.44-220.74,234.16-228.99c156.01-10.49,283.56,120.01,269.5,275.64
				C1971.04,1121.92,1870.67,1220.08,1748.02,1228.42z" class="svgShape colore6f3fc-1 selectable"></path>
            <path fill="#030047" d="M2032.21,1916.5h-1641c-1.84,0-3.33-1.49-3.33-3.33c0-1.84,1.49-3.33,3.33-3.33h1641
				c1.84,0,3.33,1.49,3.33,3.33C2035.54,1915.01,2034.05,1916.5,2032.21,1916.5z"
                class="svgShape color030047-2 selectable"></path>
            <path fill="#fff" d="M1080.72,1180.54l271.15-55.49l76.87-210.67h169.09l-64.6,325.47c-10.71,41.89-45.6,73.21-88.4,79.35
				l-320.43,57.02" class="svgShape colorffffff-3 selectable"></path>
            <path fill="#030047" d="M1124.4,1379.55c-1.58,0-2.98-1.13-3.27-2.74c-0.32-1.81,0.88-3.54,2.69-3.86l320.43-57.02
				c41.73-5.98,75.35-36.16,85.76-76.9l63.77-321.32h-162.72l-76.07,208.49c-0.39,1.08-1.33,1.89-2.46,2.12l-271.15,55.49
				c-1.8,0.37-3.56-0.79-3.92-2.59c-0.37-1.8,0.79-3.56,2.59-3.93l269.34-55.11l76.23-208.93c0.48-1.31,1.72-2.19,3.12-2.19h169.09
				c1,0,1.94,0.45,2.57,1.22c0.63,0.77,0.88,1.78,0.69,2.76l-64.6,325.47c-11.12,43.53-46.9,75.64-91.19,81.99l-320.32,57
				C1124.79,1379.53,1124.59,1379.55,1124.4,1379.55z" class="svgShape color030047-4 selectable"></path>
            <polygon fill="#ffcc3d" points="950.8 1182.72 1156.87 1151.24 1181.87 1384.86 968.23 1442.83"
                class="svgShape colorffcc3d-5 selectable"></polygon>
            <path fill="#fff" d="M1160.4,1281c-24.06,0-45.18-17.67-48.79-42.16c-3.96-26.92,14.72-52.04,41.63-56
				c1.83-0.27,3.51,0.99,3.78,2.81c0.27,1.82-0.99,3.51-2.81,3.78c-23.29,3.43-39.44,25.16-36.02,48.45
				c3.43,23.29,25.14,39.44,48.45,36.02c1.84-0.27,3.51,0.99,3.78,2.81c0.27,1.82-0.99,3.51-2.81,3.78
				C1165.19,1280.83,1162.78,1281,1160.4,1281z" opacity=".4" class="svgShape colorffffff-6 selectable"></path>
            <path fill="#030047" d="M968.23,1446.15c-1.47,0-2.81-0.98-3.21-2.46c-0.48-1.77,0.57-3.6,2.34-4.08l210.9-57.23l-24.32-227.27
				l-129.84,22.41c-1.84,0.32-3.53-0.9-3.85-2.71c-0.31-1.81,0.9-3.53,2.71-3.84l133.34-23.01c0.94-0.16,1.84,0.07,2.57,0.62
				c0.73,0.55,1.2,1.39,1.3,2.3l25,233.62c0.17,1.63-0.86,3.14-2.44,3.56l-213.64,57.97
				C968.81,1446.12,968.52,1446.15,968.23,1446.15z" class="svgShape color030047-7 selectable"></path>
            <polygon fill="#030047" points="626.65 1913.18 621.79 1643 1043.59 1670.58 1070.83 1913.18"
                class="svgShape color030047-8 selectable"></polygon>
            <path fill="#ffcc3d" d="M834.22,1166.56c-42.11-1.05-168.15,10.57-168.15,10.57c-25.26,4.54-43.63,31.29-44.98,56.92
						l-29.56,532.63l479.29,11.4l-46.06-540.03c-1.97-26.26-22.18-47.48-48.31-50.72C976.46,1187.35,870.15,1167.46,834.22,1166.56z
						" class="svgShape colorffcc3d-9 selectable"></path>
            <path fill="#fff"
                d="M672.15 1690.14c-6.76 0-13.29-2.18-18.77-6.33-6.64-5.03-10.92-12.34-12.05-20.59-2.37-17.05 9.56-32.85 26.61-35.23 8.29-1.13 16.48 1.02 23.13 6.05 6.66 5.04 10.94 12.36 12.07 20.61 1.15 8.25-.98 16.46-6.01 23.1-5.02 6.64-12.34 10.94-20.6 12.09l0 0C675.06 1690.04 673.6 1690.14 672.15 1690.14zM672.23 1634.34c-1.12 0-2.25.08-3.39.23-13.41 1.87-22.8 14.31-20.93 27.73.89 6.49 4.25 12.24 9.48 16.2 5.24 3.96 11.7 5.65 18.21 4.74l0 0c6.5-.91 12.26-4.29 16.22-9.51 3.95-5.23 5.63-11.68 4.72-18.18-.89-6.5-4.26-12.26-9.49-16.22C682.73 1636.07 677.56 1634.34 672.23 1634.34zM1052.78 1615.02c-.2 0-.41-.02-.62-.06-15.32-2.87-26.44-16.28-26.44-31.88 0-13.8 8.74-26.08 21.76-30.56 2.1-.72 4.43.94 4.43 3.15 0 1.57-1.07 2.88-2.52 3.23-10.19 3.62-17.02 13.3-17.02 24.18 0 12.4 8.84 23.05 21.01 25.34 1.8.34 2.99 2.08 2.66 3.88C1055.75 1613.9 1054.35 1615.02 1052.78 1615.02z"
                opacity=".4" class="svgShape colorffffff-10 selectable"></path>
            <path fill="#030047"
                d="M1070.82,1781.42c-1.71,0-3.16-1.31-3.31-3.04l-41.77-482.85c-0.16-1.83,1.2-3.44,3.03-3.6
						c1.81-0.16,3.44,1.2,3.6,3.03l41.77,482.85c0.16,1.83-1.2,3.44-3.03,3.6C1071.02,1781.41,1070.92,1781.42,1070.82,1781.42z"
                class="svgShape color030047-11 selectable"></path>
            <path fill="#fff"
                d="M776.95,1047.43v119.59c77.49,94.53,158.49,15.79,158.58,15.62l-37.88-158.43L776.95,1047.43z"
                class="svgShape colorffffff-12 selectable"></path>
            <path fill="#030047" d="M860.96,1216.88c-31.49,0-60.57-16.03-86.58-47.76c-0.49-0.59-0.75-1.34-0.75-2.11v-119.59
					c0-1.59,1.13-2.97,2.7-3.27l120.7-23.23c1.75-0.34,3.45,0.76,3.86,2.49l37.88,158.43c0.18,0.77,0.09,1.57-0.27,2.28
					c-0.87,1.72-29.06,28-67.13,32.17C867.87,1216.69,864.4,1216.88,860.96,1216.88z M780.28,1165.82
					c23.29,28.07,49.13,42.97,76.8,44.3c38.11,1.83,68.29-22.82,74.77-28.6l-36.69-153.45l-114.88,22.1V1165.82z"
                class="svgShape color030047-13 selectable"></path>
            <path fill="#fff" d="M779.78,1062.34c-43.1-61.32-56.5-162.1-56.5-162.1l146.92-85.45c3.69,2.46,106.22,31.09,122.07,145.67
						c14.12,102.06-12.48,172.27-155.88,146.93" class="svgShape colorffffff-14 selectable"></path>
            <path fill="#030047"
                d="M889.91,1115.97c-16.14,0-34.14-1.77-54.1-5.29c-1.81-0.32-3.01-2.04-2.69-3.85
						c0.32-1.81,1.99-3.02,3.85-2.7c61.95,10.94,104.09,4.68,128.82-19.15c23.96-23.08,31.54-63.66,23.18-124.06
						c-9.13-66.03-50.59-116.35-116.74-141.69c-0.75-0.29-1.35-0.52-1.83-0.71L726.9,901.98c2.26,14.99,16.95,103.46,55.6,158.45
						c1.06,1.5,0.7,3.58-0.81,4.63c-1.51,1.06-3.58,0.69-4.63-0.81c-43.07-61.28-56.94-162.56-57.07-163.58
						c-0.18-1.33,0.46-2.64,1.62-3.31l146.92-85.45c1.1-0.64,2.46-0.6,3.52,0.11c0.26,0.12,1.2,0.47,2.57,0.99
						c68.51,26.25,111.46,78.45,120.95,146.99c8.67,62.66,0.44,105.1-25.16,129.76C952.24,1107.28,925.68,1115.97,889.91,1115.97z"
                class="svgShape color030047-15 selectable"></path>
            <path fill="#030047" d="M808.73,789.59c0,0-48.36-19.06-71.72-1.02c-23.36,18.03,2.87,60.65,2.87,60.65s-40.16-6.56-60.24,39.34
					s52.87,109.25,52.87,109.25s42.02-27.42,42.27-27.58c-0.82,0.53,2.44,2.63,2.68,2.72c3.76,1.38,10.26-4.65,12.15-7.19
					c3.45-4.65,4.25-11.41,6.55-16.84c2.72-6.43,6.14-12.55,10.15-18.26c15.64-22.29,40.35-38.49,67.47-42.32
					c15.98-2.26,32.37-0.6,48.23-3.58c19.82-3.73,38.13-14.94,50.47-30.89c12.34-15.95,18.59-36.49,17.24-56.61
					c-0.79-11.72-4.33-23.68-12.33-32.28c-11.42-12.28-29.35-15.46-45.93-17.97c-24.19-3.65-49.12-7.27-72.87-1.41
					c-23.75,5.86-46.28,23.64-50.02,47.81" class="svgShape color030047-16 selectable"></path>
            <ellipse cx="949.03" cy="947.74" fill="#030047" rx="8.45" ry="12.6"
                transform="rotate(-25.471 949.22 947.801)" class="svgShape color030047-17 selectable"></ellipse>
            <path fill="#fff" d="M947.19,921.69c-8.97-0.22-17.4,5.53-21.39,14.6"
                class="svgShape colorffffff-18 selectable"></path>
            <path fill="#030047" d="M925.8,939.62c-0.45,0-0.91-0.09-1.34-0.28c-1.68-0.74-2.45-2.7-1.71-4.38
						c4.46-10.14,13.8-16.59,23.93-16.59c0.19,0,0.39,0,0.59,0.01c1.84,0.05,3.29,1.57,3.24,3.41c-0.05,1.83-1.58,3.28-3.41,3.24
						c-7.69-0.16-14.81,4.76-18.26,12.61C928.3,938.88,927.08,939.62,925.8,939.62z"
                class="svgShape color030047-19 selectable"></path>
            <ellipse cx="882.69" cy="979.28" fill="#030047" rx="8.45" ry="12.6"
                transform="rotate(-25.471 882.87 979.348)" class="svgShape color030047-20 selectable"></ellipse>
            <path fill="#fff" d="M880.84,953.23c-8.97-0.22-17.4,5.53-21.39,14.6"
                class="svgShape colorffffff-21 selectable"></path>
            <path fill="#030047" d="M859.45,971.16c-0.45,0-0.91-0.09-1.34-0.28c-1.68-0.74-2.45-2.7-1.71-4.38
						c4.54-10.33,14.02-16.86,24.52-16.59c1.84,0.05,3.29,1.57,3.24,3.41c-0.05,1.83-1.64,3.27-3.41,3.24
						c-7.64-0.16-14.81,4.76-18.26,12.61C861.95,970.41,860.73,971.16,859.45,971.16z"
                class="svgShape color030047-22 selectable"></path>
            <path fill="#fff" d="M776.94,971c0,0-45.6-30.47-65.41-18.7c-19.81,11.77,3.16,85.26,29.85,87.26
						c26.7,2.01,45.07-12.06,45.07-12.06" class="svgShape colorffffff-23 selectable"></path>
            <path fill="#030047" d="M746.66,1043.09c-1.8,0-3.64-0.07-5.53-0.21c-17.24-1.3-32.15-27.02-37.95-51.76
						c-4.87-20.73-2.38-36.31,6.65-41.68c21.34-12.7,67.02,17.5,68.95,18.79c1.52,1.02,1.94,3.09,0.92,4.61
						c-1.02,1.53-3.07,1.94-4.62,0.92c-12.2-8.15-47.1-27.37-61.86-18.6c-6.21,3.69-7.61,17.21-3.57,34.44
						c5.2,22.14,18.58,45.64,31.98,46.65c25.05,1.89,42.63-11.25,42.8-11.38c1.46-1.11,3.55-0.83,4.66,0.63s0.84,3.54-0.62,4.66
						C787.74,1030.71,771.27,1043.09,746.66,1043.09z" class="svgShape color030047-24 selectable"></path>
            <path fill="#030047" d="M737.45,1006.87c-1.03,0-2.05-0.48-2.7-1.38c-3.28-4.54-5.66-9.83-6.88-15.3
					c-1.05-4.73-0.53-8.32,1.58-10.97c1.78-2.24,4.73-3.59,7.89-3.63c2.37,0,4.67,0.59,7.27,1.88c3.26,1.62,6.22,3.95,8.57,6.74
					c1.18,1.41,0.99,3.51-0.42,4.69c-1.4,1.18-3.51,1-4.69-0.41c-1.75-2.1-3.98-3.84-6.41-5.05c-1.62-0.8-2.99-1.19-4.2-1.19
					c-0.02,0-0.03,0-0.06,0c-1.16,0.01-2.21,0.44-2.75,1.12c-0.77,0.97-0.87,2.78-0.29,5.38c1.02,4.6,3.02,9.04,5.77,12.85
					c1.08,1.49,0.74,3.57-0.74,4.64C738.81,1006.66,738.13,1006.87,737.45,1006.87z"
                class="svgShape color030047-25 selectable"></path>
            <path fill="#fff" d="M916.6,961.4c4.27,9.1,16.47,33.61,20.74,42.71c2.57,5.49,5.19,11.21,4.69,17.08
					c-0.5,5.87-5.06,11.95-12.08,13.03" class="svgShape colorffffff-26 selectable"></path>
            <path fill="#030047"
                d="M929.95 1037.55c-1.62 0-3.03-1.18-3.28-2.82-.28-1.82.97-3.51 2.78-3.79 5.54-.85 8.91-5.8 9.27-10.03.43-5.09-2.13-10.56-4.39-15.38-2.13-4.54-6.24-12.92-10.35-21.3-4.13-8.42-8.26-16.85-10.39-21.41-.78-1.66-.07-3.64 1.6-4.42 1.66-.78 3.64-.06 4.42 1.6 2.13 4.54 6.24 12.92 10.35 21.3 4.13 8.42 8.26 16.85 10.39 21.41 2.62 5.58 5.58 11.9 4.99 18.77-.59 6.92-5.89 14.65-14.89 16.04C930.29 1037.53 930.12 1037.55 929.95 1037.55zM901.76 1059.17c-6.09 0-12.17-1.49-17.57-4.39-8.52-4.59-15.03-12.53-17.86-21.79-.53-1.76.45-3.62 2.21-4.15 1.77-.54 3.62.46 4.15 2.21 2.31 7.6 7.65 14.11 14.64 17.87 6.99 3.76 15.37 4.62 22.98 2.37 1.77-.52 3.61.48 4.13 2.24.52 1.76-.48 3.61-2.24 4.13C908.82 1058.68 905.29 1059.17 901.76 1059.17z"
                class="svgShape color030047-27 selectable"></path>
            <path fill="#fff"
                d="M758.57 1348.92c-17.22 0-31.22-14-31.22-31.22 0-17.21 14-31.22 31.22-31.22 17.21 0 31.21 14 31.21 31.22C789.78 1334.91 775.78 1348.92 758.57 1348.92zM758.57 1293.14c-13.55 0-24.57 11.02-24.57 24.56 0 13.54 11.02 24.56 24.57 24.56 13.54 0 24.56-11.02 24.56-24.56C783.13 1304.16 772.11 1293.14 758.57 1293.14zM764.14 1556.56c-4.82 0-9.49-1.56-13.41-4.52-4.74-3.59-7.8-8.81-8.6-14.7-1.7-12.17 6.83-23.45 19-25.15 12.14-1.66 23.47 6.87 25.14 19.03 1.69 12.15-6.83 23.43-19 25.13C766.22 1556.49 765.17 1556.56 764.14 1556.56zM764.17 1518.63c-.71 0-1.42.05-2.14.15-8.53 1.19-14.51 9.11-13.31 17.65.56 4.14 2.7 7.79 6.02 10.31 3.34 2.53 7.44 3.6 11.6 3.02 8.54-1.19 14.52-9.1 13.33-17.63C778.6 1524.31 771.88 1518.63 764.17 1518.63zM924.01 1482.61c-16.61 0-30.12-13.51-30.12-30.12 0-16.61 13.51-30.12 30.12-30.12 16.61 0 30.12 13.51 30.12 30.12C954.13 1469.1 940.62 1482.61 924.01 1482.61zM924.01 1429.02c-12.94 0-23.47 10.53-23.47 23.47s10.53 23.47 23.47 23.47c12.94 0 23.47-10.53 23.47-23.47S936.95 1429.02 924.01 1429.02zM936.7 1625.24c-9.22 0-16.72-7.5-16.72-16.72 0-9.22 7.5-16.72 16.72-16.72 9.22 0 16.72 7.5 16.72 16.72C953.42 1617.74 945.92 1625.24 936.7 1625.24zM936.7 1598.45c-5.55 0-10.07 4.52-10.07 10.07 0 5.55 4.52 10.07 10.07 10.07 5.55 0 10.07-4.52 10.07-10.07C946.77 1602.97 942.25 1598.45 936.7 1598.45zM618.22 1561.88c-5.62 0-11.22-1.32-16.21-3.81-1.65-.82-2.31-2.82-1.49-4.46.83-1.64 2.82-2.31 4.46-1.49 4.07 2.03 8.65 3.11 13.24 3.11 16.48 0 29.89-13.41 29.89-29.89 0-16.48-13.41-29.89-29.89-29.89-4.33 0-8.44.89-12.2 2.66-1.68.78-3.65.06-4.42-1.6-.78-1.66-.06-3.64 1.6-4.42 4.66-2.18 9.71-3.29 15.02-3.29 20.15 0 36.55 16.39 36.55 36.55C654.76 1545.49 638.37 1561.88 618.22 1561.88zM864.83 1403.31c-10.71 0-19.42-8.71-19.42-19.42s8.71-19.42 19.42-19.42 19.42 8.71 19.42 19.42S875.53 1403.31 864.83 1403.31zM864.83 1371.13c-7.04 0-12.76 5.73-12.76 12.76s5.73 12.76 12.76 12.76c7.04 0 12.77-5.73 12.77-12.76S871.87 1371.13 864.83 1371.13zM923.3 1305.87c-13.67 0-24.79-11.12-24.79-24.79 0-13.67 11.12-24.79 24.79-24.79s24.79 11.12 24.79 24.79C948.09 1294.75 936.97 1305.87 923.3 1305.87zM923.3 1262.94c-10 0-18.14 8.14-18.14 18.14s8.14 18.14 18.14 18.14 18.14-8.14 18.14-18.14S933.3 1262.94 923.3 1262.94zM1096.52 1360.12c-6.8 0-13.6-2.59-18.78-7.77v0c-5.02-5.02-7.78-11.69-7.78-18.78s2.76-13.76 7.78-18.78c5.02-5.02 11.69-7.78 18.78-7.78 7.1 0 13.77 2.76 18.78 7.78 10.36 10.36 10.36 27.21 0 37.56C1110.12 1357.53 1103.32 1360.12 1096.52 1360.12zM1082.44 1347.65c7.76 7.76 20.39 7.77 28.16 0 7.76-7.76 7.76-20.39 0-28.15-7.76-7.76-20.39-7.77-28.16 0C1074.68 1327.26 1074.68 1339.89 1082.44 1347.65L1082.44 1347.65zM1058.79 1264.44c-5.28 0-10.24-2.06-13.97-5.79l0 0 0 0c-7.7-7.7-7.7-20.23 0-27.94 3.73-3.73 8.69-5.79 13.97-5.79s10.24 2.06 13.97 5.79c3.73 3.73 5.79 8.69 5.79 13.97s-2.05 10.24-5.79 13.97C1069.03 1262.38 1064.07 1264.44 1058.79 1264.44zM1058.79 1231.58c-3.5 0-6.79 1.36-9.26 3.84-5.11 5.11-5.11 13.42 0 18.53l0 0c4.95 4.95 13.58 4.95 18.53 0 2.48-2.48 3.84-5.77 3.84-9.26s-1.36-6.79-3.84-9.26C1065.58 1232.94 1062.29 1231.58 1058.79 1231.58zM848.74 1640.34c-10.16 0-18.42-8.27-18.42-18.42 0-10.16 8.26-18.42 18.42-18.42 10.16 0 18.42 8.27 18.42 18.42C867.16 1632.08 858.9 1640.34 848.74 1640.34zM848.74 1610.14c-6.49 0-11.77 5.28-11.77 11.77 0 6.49 5.28 11.77 11.77 11.77 6.49 0 11.77-5.28 11.77-11.77C860.51 1615.42 855.23 1610.14 848.74 1610.14z"
                opacity=".4" class="svgShape colorffffff-28 selectable"></path>
            <rect width="669.49" height="881.6" x="1269.97" y="903.78" fill="#fff"
                transform="rotate(-5.253 1603.908 1344.633)" class="svgShape colorffffff-29 selectable"></rect>
            <path fill="#030047" d="M1311.6,1817.42c-1.7,0-3.15-1.3-3.31-3.02l-80.47-877.92c-0.08-0.88,0.19-1.75,0.76-2.43
				c0.56-0.68,1.37-1.1,2.25-1.18l666.7-61.11c1.81-0.17,3.45,1.18,3.62,3.01l80.47,877.92c0.08,0.88-0.19,1.75-0.76,2.43
				c-0.56,0.68-1.37,1.1-2.25,1.18l-666.7,61.11C1311.8,1817.41,1311.7,1817.42,1311.6,1817.42z M1234.75,939.18l79.86,871.29
				l660.07-60.5l-79.86-871.29L1234.75,939.18z" class="svgShape color030047-30 selectable"></path>
            <path fill="#fff" d="M1476.56,855.38c21.67,2.54,54.92,3.3,72.86,28.86c16.35,23.29,4.12,106.55-44.76,63.77
				c0,0-6.41,14.75-21.74,11.96c-15.33-2.8-15-16.99-15-16.99s-7.34,15.53-20.36,10.72c-13.02-4.81-15.69-15.41-15.69-15.41
				c-0.07,1.44-3.29,19.77-23.98,6.52c-18.55-11.88-1.83-69.54,3.02-77.13C1422.09,850.24,1458.85,853.3,1476.56,855.38z"
                class="svgShape colorffffff-31 selectable"></path>
            <path fill="#030047" d="M1486.66,963.65c-1.38,0-2.82-0.13-4.33-0.4c-9.01-1.64-13.75-6.93-16-12.1
				c-4.47,4.86-11.38,8.82-19.92,5.67c-7.03-2.6-11.4-6.73-14.04-10.35c-1.23,1.93-2.94,3.77-5.31,5
				c-5.5,2.84-12.55,1.54-20.97-3.85c-21.23-13.6-2.67-74.39,2.02-81.72c8.77-13.7,31.28-18.21,68.83-13.81
				c2.19,0.26,4.49,0.5,6.89,0.74c21.66,2.24,51.32,5.31,68.31,29.51c11.63,16.56,9.67,59.71-7.42,75.06
				c-6.03,5.42-18.94,11.73-39.14-4.28C1502.17,958.08,1495.8,963.65,1486.66,963.65z M1467.93,939.66c0.26,0,0.52,0.03,0.77,0.09
				c1.52,0.36,2.59,1.74,2.56,3.31c-0.01,1.15,0.23,11.45,12.27,13.64c12.56,2.29,17.86-9.5,18.08-10.01
				c0.42-0.97,1.29-1.69,2.32-1.92c1.04-0.23,2.12,0.04,2.92,0.74c13.83,12.1,25.08,14.44,33.42,6.93
				c14.74-13.25,16.47-51.97,6.42-66.29c-15.24-21.72-42.03-24.49-63.54-26.71c-2.43-0.25-4.77-0.49-6.99-0.75
				c-34.27-4.02-55.29-0.4-62.44,10.79c-4.82,7.54-19.71,62.5-4.04,72.53c6.12,3.92,11.04,5.16,14.21,3.6
				c3.4-1.66,4.56-6.44,4.66-7.54c0.15-1.61,1.44-2.93,3.06-3.06c1.68-0.13,3.09,0.89,3.49,2.45c0.09,0.34,2.53,9.01,13.62,13.11
				c10.01,3.68,15.95-8.5,16.21-9.03C1465.49,940.38,1466.67,939.66,1467.93,939.66z"
                class="svgShape color030047-32 selectable"></path>
            <line x1="1504.67" x2="1508.44" y1="948.02" y2="906.89" fill="#fff"
                class="svgShape colorffffff-33 selectable"></line>
            <path fill="#030047"
                d="M1504.67,951.34c-0.1,0-0.2,0-0.31-0.01c-1.83-0.17-3.18-1.79-3.01-3.62l3.77-41.13
				c0.17-1.83,1.81-3.17,3.62-3.01c1.83,0.17,3.18,1.79,3.01,3.62l-3.77,41.13C1507.82,950.05,1506.37,951.34,1504.67,951.34z"
                class="svgShape color030047-34 selectable"></path>
            <line x1="1467.93" x2="1471.42" y1="942.98" y2="904.9" fill="#fff"
                class="svgShape colorffffff-35 selectable"></line>
            <path fill="#030047"
                d="M1467.94,946.31c-0.1,0-0.2,0-0.31-0.01c-1.83-0.17-3.18-1.79-3.01-3.62l3.49-38.08
				c0.17-1.83,1.81-3.18,3.62-3.01c1.83,0.17,3.18,1.79,3.01,3.62l-3.49,38.08C1471.09,945.01,1469.64,946.31,1467.94,946.31z"
                class="svgShape color030047-36 selectable"></path>
            <line x1="1431.88" x2="1435.24" y1="938.28" y2="901.58" fill="#fff"
                class="svgShape colorffffff-37 selectable"></line>
            <path fill="#030047"
                d="M1431.88,941.61c-0.1,0-0.2,0-0.31-0.01c-1.83-0.17-3.17-1.79-3.01-3.62l3.36-36.7
				c0.17-1.83,1.81-3.18,3.62-3.01c1.83,0.17,3.17,1.79,3.01,3.62l-3.36,36.7C1435.03,940.31,1433.58,941.61,1431.88,941.61z"
                class="svgShape color030047-38 selectable"></path>
            <path fill="#605efd" d="M1746.91,1078.67l-330.37,30.28c-11.52,1.06-21.72-7.43-22.77-18.95l-7.5-81.85
				c-1.06-11.52,7.43-21.72,18.95-22.77l330.37-30.28c11.52-1.06,21.72,7.43,22.77,18.95l7.5,81.85
				C1766.92,1067.41,1758.44,1077.61,1746.91,1078.67z" class="svgShape color605efd-39 selectable"></path>
            <path fill="#fff"
                d="M1500.2 1022.55c-1.86.12-4.77.18-8.73.17-3.81-.01-6.72.06-8.72.21.27 2.72.91 7.54 1.91 14.49.91 6.14 1.47 11 1.71 14.58.05.81.21 2.02.48 3.61.27 1.59.43 2.79.49 3.6.11 1.79-.16 3.43-.84 4.91-.86 1.91-2.2 2.91-4.01 3.03-1.31.09-2.5-.25-3.56-1.02-1.19-.87-1.82-1.99-1.91-3.41-.02-.33 0-.84.08-1.53.08-.69.1-1.21.08-1.57-.07-1.1-.26-2.75-.56-4.97-.3-2.21-.48-3.88-.56-5-.21-3.21-.74-7.53-1.6-12.96-.98-6.25-1.59-10.57-1.85-12.95l-1.86.12c-5.33.35-9.58.24-12.76-.32-2.69-.47-4.11-1.95-4.27-4.44-.08-1.22.27-2.35 1.07-3.39.93-1.23 2.21-1.84 3.84-1.83.84 0 2.75.08 5.73.24 2.38.11 4.3.12 5.76.03 1.46-.1 3.63-.26 6.53-.5 2.9-.24 5.08-.4 6.53-.5 1.81-.12 4.54-.17 8.19-.15 3.64.01 6.38-.04 8.19-.16 1.43-.09 2.66.3 3.69 1.16 1.03.87 1.59 1.98 1.68 3.35.09 1.36-.32 2.55-1.23 3.55C1502.8 1021.91 1501.64 1022.46 1500.2 1022.55zM1552.44 1063.41c-1.89.05-3.93-2.05-6.13-6.3-1.45-2.74-2.75-5.92-3.89-9.54-1.75.38-4.62.83-8.61 1.35-3.76.51-6.63 1.01-8.61 1.5-.93 2.7-2.58 6.79-4.96 12.24-.94 1.79-2.34 2.75-4.2 2.87-1.31.09-2.53-.29-3.63-1.12-1.11-.83-1.71-1.94-1.8-3.32-.08-1.22 1.4-5.47 4.42-12.74-.38-.72-.57-1.4-.56-2.06.02-1.15 1.12-2.12 3.3-2.91 3.01-6.1 6.38-12.44 10.13-19.02 5.38-9.45 8.76-14.21 10.14-14.31 2.63-.17 4.48 1.31 5.57 4.43.65 2.52 1.64 6.31 3.01 11.36 1.91 6.79 4.19 14.55 6.87 23.28.21.66.93 2.19 2.14 4.61.99 2 1.52 3.52 1.59 4.54.09 1.39-.35 2.58-1.33 3.58C1554.91 1062.85 1553.76 1063.37 1552.44 1063.41zM1536.7 1027.49c-1.65 3.33-3.93 7.86-6.85 13.59 1.06-.31 2.72-.61 4.98-.9 2.67-.34 4.34-.58 5.02-.72C1539.07 1036.38 1538.02 1032.39 1536.7 1027.49zM1581.84 1062.6c-6.06.39-10.92-.64-14.58-3.12-3.08-2.05-4.72-4.55-4.91-7.49-.1-1.51.27-2.79 1.11-3.84.84-1.05 2.07-1.63 3.66-1.73 2.15-.14 3.8.86 4.94 2.99 1.55 2.85 4.73 4.12 9.53 3.81 4.11-.27 8.02-1.42 11.75-3.46 3.87-2.1 5.73-4.25 5.58-6.45-.19-3.01-1.57-4.92-4.11-5.71-1.81-.58-5.38-.75-10.72-.53-4.14.18-7.88-.36-11.25-1.61-4.55-1.69-6.9-4.4-7.07-8.11-.23-4.66 1.97-9.1 6.62-13.31 4.64-4.2 9.91-6.49 15.8-6.87 2.34-.15 5.26.2 8.77 1.05 4.36 1.06 6.6 2.46 6.71 4.21.08 1.24-.28 2.37-1.07 3.38-.88 1.14-2.08 1.75-3.59 1.85-1.12.07-2.82-.05-5.08-.39-2.26-.33-3.97-.46-5.11-.39-3.08.23-5.95 1.17-8.63 2.8-2.76 1.67-4.1 3.38-3.98 5.12.06.91.54 1.62 1.46 2.15.91.53 2.24.85 4 .98 3.06-.03 6.12-.06 9.16-.09 5.33.06 9.62 1.28 12.86 3.66 3.58 2.65 5.53 6.51 5.86 11.57.4 6.17-2.81 11.07-9.62 14.7C1594.75 1060.56 1588.71 1062.16 1581.84 1062.6zM1625.21 1041.64l.95 15.1c.07 1.05-.17 2.04-.71 2.95-.75 1.28-1.93 1.96-3.53 2.07-1.88.12-3.42-.54-4.59-2-.91-1.14-1.41-2.39-1.5-3.76-.35-5.31-.7-13.29-1.06-23.95-.36-10.65-.71-18.64-1.05-23.94-.09-1.34.31-2.52 1.21-3.54.89-1.02 2.05-1.57 3.48-1.67 1.43-.09 2.66.31 3.66 1.2 1 .9 1.55 2.01 1.64 3.35.14 2.15.22 5.05.24 8.73.02 4.27.05 7.19.1 8.74 1.56-1.68 7.33-8.73 17.29-21.14 1.02-1.26 2.25-1.94 3.68-2.04 1.36-.09 2.58.31 3.65 1.2 1.08.89 1.66 2.02 1.75 3.38.1 1.49-2.49 5.52-7.77 12.1-3.91 4.83-8.04 9.63-12.4 14.38 2.76 2.29 5.54 4.58 8.32 6.87 3.24 2.62 6.14 4.76 8.68 6.42 1.28.81 2.64 1.39 4.08 1.75 2.61.65 3.98 2.13 4.14 4.45.06 1.03-.19 2.04-.78 3.04-.8 1.35-1.98 2.07-3.56 2.17-3.41.23-7.99-1.72-13.72-5.83C1635.69 1050.45 1631.63 1047.1 1625.21 1041.64zM1677.48 1056.39c-6.06.39-10.92-.64-14.58-3.12-3.08-2.06-4.72-4.56-4.91-7.49-.1-1.51.27-2.78 1.11-3.83.84-1.05 2.07-1.63 3.66-1.74 2.15-.14 3.8.86 4.94 2.99 1.55 2.85 4.73 4.12 9.52 3.81 4.11-.27 8.02-1.42 11.75-3.46 3.87-2.1 5.73-4.25 5.58-6.45-.19-3.01-1.56-4.92-4.11-5.71-1.81-.58-5.38-.76-10.72-.53-4.14.18-7.88-.36-11.25-1.6-4.55-1.7-6.9-4.4-7.07-8.11-.23-4.66 1.97-9.1 6.61-13.31 4.64-4.2 9.91-6.49 15.8-6.87 2.34-.15 5.27.2 8.77 1.05 4.36 1.06 6.6 2.46 6.71 4.21.08 1.24-.28 2.37-1.07 3.38-.89 1.14-2.08 1.75-3.59 1.85-1.12.07-2.81-.05-5.08-.39-2.26-.33-3.97-.46-5.12-.39-3.07.23-5.95 1.16-8.62 2.8-2.77 1.67-4.1 3.37-3.98 5.12.06.91.54 1.63 1.45 2.16.91.53 2.24.85 4 .98 3.07-.03 6.12-.06 9.16-.09 5.32.06 9.62 1.28 12.86 3.66 3.58 2.65 5.53 6.51 5.86 11.57.4 6.17-2.8 11.06-9.62 14.7C1690.39 1054.34 1684.35 1055.94 1677.48 1056.39zM734.78 1663.92l111.55 45.33c9.27 2.53 14.28 12.46 10.6 21.29-1.82 4.48-5.59 7.85-9.89 9.18-2.53.66-5.1.84-7.72.36l-72 4.81"
                class="svgShape colorffffff-40 selectable"></path>
            <path fill="#030047" d="M767.32,1748.21c-1.74,0-3.2-1.35-3.31-3.1c-0.13-1.83,1.26-3.42,3.1-3.54l72-4.81
				c0.27-0.02,0.55,0,0.83,0.05c2.02,0.37,4.06,0.28,6.27-0.3c3.34-1.04,6.25-3.75,7.65-7.22c1.39-3.34,1.29-6.94-0.29-10.16
				c-1.59-3.27-4.55-5.69-8.11-6.66L733.53,1667c-1.7-0.69-2.52-2.63-1.83-4.33c0.7-1.71,2.63-2.52,4.34-1.83l111.55,45.33
				c5.02,1.35,9.52,5.05,11.96,10.03c2.39,4.89,2.56,10.59,0.46,15.62c-2.14,5.27-6.62,9.42-11.98,11.08
				c-3.1,0.82-6.04,0.99-8.88,0.52l-71.6,4.79C767.48,1748.21,767.4,1748.21,767.32,1748.21z"
                class="svgShape color030047-41 selectable"></path>
            <polygon fill="#605efd" points="1116.86 1659.82 1018.36 1539.96 606.24 1870.05 704.73 1989.9"
                class="svgShape color605efd-42 selectable"></polygon>
            <path fill="#030047" d="M704.73,1993.23c-0.96,0-1.91-0.41-2.57-1.21l-98.5-119.85c-0.57-0.69-0.83-1.57-0.74-2.46
				s0.54-1.7,1.23-2.25l412.13-330.08c1.41-1.14,3.49-0.92,4.65,0.48l98.5,119.85c0.57,0.69,0.83,1.57,0.74,2.46
				c-0.09,0.88-0.54,1.7-1.23,2.25L706.81,1992.5C706.2,1992.99,705.47,1993.23,704.73,1993.23z M610.95,1870.54l94.27,114.71
				l406.93-325.92l-94.27-114.71L610.95,1870.54z" class="svgShape color030047-43 selectable"></path>
            <path fill="#e6f3fc" d="M662.84,2027.97l41.93-38.09l-98.5-119.86l-41.93,38.09c-21.17,17.4-25.75,46.65-10.32,65.42l42.64,51.89
				C612.09,2044.2,641.67,2045.37,662.84,2027.97z" class="svgShape colore6f3fc-44 selectable"></path>
            <path fill="#030047" d="M629.47,2043.58c-13.63,0-26.63-5.4-35.38-16.04l-42.64-51.89c-16.57-20.16-11.73-51.61,10.78-70.11
				l41.81-37.98c0.67-0.61,1.57-0.92,2.48-0.86c0.91,0.07,1.75,0.5,2.33,1.21l98.5,119.86c1.13,1.37,0.98,3.38-0.33,4.57
				l-41.93,38.09c-0.04,0.04-0.08,0.07-0.12,0.11C654.34,2039.27,641.65,2043.58,629.47,2043.58z M605.92,1874.83l-39.35,35.74
				c-19.8,16.28-24.22,43.53-9.99,60.85l42.64,51.89c14.22,17.3,41.77,18.26,61.44,2.14l39.53-35.9L605.92,1874.83z M662.84,2027.97
				h0.04H662.84z" class="svgShape color030047-45 selectable"></path>
            <line x1="1067.62" x2="655.49" y1="1599.9" y2="1929.98" fill="#ffcc3d"
                class="svgShape colorffcc3d-46 selectable"></line>
            <path fill="#030047"
                d="M655.49,1933.31c-0.97,0-1.94-0.43-2.59-1.25c-1.15-1.43-0.92-3.53,0.52-4.68l412.13-330.08
				c1.44-1.15,3.53-0.92,4.67,0.52c1.15,1.43,0.92,3.53-0.52,4.68l-412.13,330.08C656.95,1933.07,656.22,1933.31,655.49,1933.31z"
                class="svgShape color030047-47 selectable"></path>
            <polygon fill="#fff" points="1116.88 1659.82 1149.38 1565.27 1164.93 1519.87 1117.43 1526.4 1018.37 1539.96"
                class="svgShape colorffffff-48 selectable"></polygon>
            <path fill="#030047" d="M1116.88,1663.15c-0.98,0-1.93-0.44-2.57-1.21l-98.5-119.86c-0.77-0.93-0.97-2.2-0.53-3.33
				c0.44-1.12,1.45-1.92,2.65-2.08l146.55-20.09c1.13-0.16,2.29,0.29,3.02,1.18c0.73,0.89,0.95,2.1,0.58,3.19l-48.05,139.95
				c-0.39,1.14-1.37,1.98-2.56,2.19C1117.27,1663.13,1117.07,1663.15,1116.88,1663.15z M1024.72,1542.45l90.95,110.66l44.36-129.21
				L1024.72,1542.45z" class="svgShape color030047-49 selectable"></path>
            <polygon fill="#030047" points="1149.38 1565.27 1164.93 1519.87 1117.43 1526.4"
                class="svgShape color030047-50 selectable"></polygon>
            <path fill="#030047" d="M1149.38,1568.59c-0.98,0-1.93-0.44-2.57-1.21l-31.95-38.87c-0.77-0.93-0.97-2.2-0.53-3.32
				c0.44-1.12,1.45-1.92,2.64-2.08l47.5-6.52c1.13-0.16,2.29,0.29,3.02,1.18c0.73,0.89,0.95,2.1,0.58,3.19l-15.55,45.39
				c-0.39,1.14-1.37,1.98-2.56,2.2C1149.77,1568.57,1149.57,1568.59,1149.38,1568.59z M1123.78,1528.88l24.38,29.67l11.87-34.65
				L1123.78,1528.88z" class="svgShape color030047-51 selectable"></path>
            <path fill="#fff"
                d="M776.67,1725.36l58.17,58.88c5.81,5.01,6.61,13.75,1.82,19.78c-1.86,2.4-4.35,3.99-7.1,4.79
				c-4.08,1.29-9.09,1.2-12.86-1.38l-38.41-35.57l52.33,49.41c5.85,5.05,6.74,13.79,1.86,19.78c-1.82,2.4-4.3,4.04-7.1,4.83
				c-4.08,1.2-9.05,1.2-12.82-1.38l-54.86-50.43l36.64,33.88c5.81,5.01,6.34,14.06,1.55,20.05c-1.86,2.4-4.39,4.04-7.14,4.88
				c0,0-0.04,0.04-0.13,0.04c-5.37,1.6-11.22-0.09-15.3-3.86l-36.01-32.95l19.25,17.78c5.9,5.06,6.43,14.1,1.6,20.09
				c-1.86,2.44-4.35,4.04-7.14,4.83c-4.04,1.33-9,1.2-12.82-1.38l-86.76-64.17l-236.27-159.06c-36.46-19.2-60.98-55.22-65.51-96.15
				c-0.49-4.52-0.75-9.09-0.75-13.62c0-33.93,13.93-66.62,38.85-90.17l143.35-153.22l113.23,136.07l-110.21,108.17l200.65,138.6"
                class="svgShape colorffffff-52 selectable"></path>
            <path fill="#030047" d="M745.88,1863.01c-3.45,0-6.8-0.95-9.54-2.8l-86.88-64.25l-236.15-158.98
				c-37.16-19.55-62.3-56.46-66.95-98.55c-0.52-4.75-0.78-9.45-0.78-13.98c0-34.89,14.54-68.63,39.89-92.58l143.2-153.07
				c0.65-0.7,1.62-1.09,2.53-1.05c0.96,0.03,1.85,0.46,2.46,1.2l113.23,136.07c1.11,1.33,1.01,3.29-0.23,4.5l-107.34,105.35
				l197.33,136.31c1.51,1.04,1.89,3.12,0.85,4.63c-1.04,1.51-3.11,1.89-4.63,0.85l-200.65-138.6c-0.82-0.56-1.34-1.46-1.42-2.45
				c-0.09-0.99,0.28-1.96,0.98-2.66l108.03-106.03l-108.86-130.82L390.2,1436.57c-24.17,22.85-37.95,54.83-37.95,87.89
				c0,4.29,0.25,8.75,0.74,13.26c4.4,39.88,28.24,74.86,63.75,93.57l236.57,159.24l86.88,64.25c2.99,2.02,7.04,1.8,9.79,0.89
				c2.36-0.67,4.18-1.9,5.54-3.69c3.86-4.79,3.34-11.73-1.12-15.55l-19.34-17.87c-1.35-1.24-1.43-3.34-0.19-4.69
				c1.24-1.35,3.34-1.44,4.69-0.2l36.01,32.95c3.4,3.14,8.03,4.33,12.08,3.13c0.05-0.02,0.09-0.03,0.14-0.05
				c2.22-0.68,4.11-1.97,5.49-3.74c3.81-4.76,3.3-11.69-1.1-15.49l-36.72-33.96c-1.35-1.25-1.43-3.35-0.19-4.7
				c1.25-1.35,3.35-1.43,4.7-0.19l54.67,50.25c2.49,1.59,6.14,1.89,9.83,0.81c2.18-0.62,4.04-1.88,5.38-3.65
				c3.8-4.67,3.16-11.33-1.39-15.25l-52.44-49.51c-1.33-1.26-1.4-3.35-0.15-4.69c1.25-1.34,3.35-1.41,4.69-0.17l38.21,35.39
				c3.01,1.93,7.02,1.7,9.8,0.83c2.24-0.65,4.11-1.91,5.47-3.66c3.72-4.69,3.11-11.36-1.36-15.22l-58.37-59.07
				c-1.29-1.31-1.28-3.41,0.03-4.7c1.31-1.29,3.42-1.28,4.7,0.03l58.18,58.88c6.99,6.02,7.98,16.72,2.05,24.19
				c-2.2,2.84-5.25,4.89-8.77,5.92c-1.3,0.41-2.63,0.69-3.95,0.83l6.37,6.02c7.18,6.19,8.18,16.91,2.16,24.3
				c-2.15,2.84-5.2,4.92-8.76,5.93c-5.74,1.68-11.43,1.02-15.61-1.83c-0.13-0.09-0.26-0.19-0.38-0.3l-7.88-7.24
				c-0.2,3.66-1.5,7.32-3.95,10.37c-2.19,2.81-5.21,4.89-8.73,5.97c-0.06,0.02-0.13,0.04-0.19,0.06v0
				c-6.31,1.88-13.41,0.11-18.51-4.6l-6.34-5.8c-0.21,3.67-1.52,7.32-3.98,10.37c-2.17,2.84-5.24,4.92-8.82,5.94
				C749.95,1862.69,747.9,1863.01,745.88,1863.01z" class="svgShape color030047-53 selectable"></path>
            <path fill="#ffcc3d" d="M681.45,1174.25l-52.39,9.82c-20.32,3.81-38.88,14.07-52.91,29.25l-105.89,96.24l136.79,160.57l129.67-124.2
				L681.45,1174.25z" class="svgShape colorffcc3d-54 selectable"></path>
            <path fill="#030047" d="M607.05,1473.46c-0.06,0-0.11,0-0.17,0c-0.91-0.05-1.77-0.47-2.36-1.17l-136.79-160.57
				c-1.16-1.37-1.03-3.41,0.29-4.62l105.89-96.24c1.36-1.23,3.46-1.14,4.7,0.22c1.24,1.36,1.13,3.46-0.22,4.7l-103.51,94.08
				l132.41,155.43l96.86-92.78c1.33-1.27,3.43-1.23,4.7,0.1c1.27,1.33,1.23,3.43-0.1,4.7l-99.41,95.21
				C608.73,1473.13,607.91,1473.46,607.05,1473.46z" class="svgShape color030047-55 selectable"></path>
            <path fill="#fff"
                d="M612.6 1388.18c-13.45 0-24.39-10.94-24.39-24.39 0-13.45 10.94-24.39 24.39-24.39 13.45 0 24.39 10.94 24.39 24.39C636.99 1377.24 626.05 1388.18 612.6 1388.18zM612.6 1346.06c-9.78 0-17.74 7.96-17.74 17.74 0 9.78 7.96 17.74 17.74 17.74 9.78 0 17.74-7.96 17.74-17.74C630.34 1354.01 622.38 1346.06 612.6 1346.06zM623.55 1305.47c-18.76 0-34.03-15.26-34.03-34.03 0-18.76 15.27-34.03 34.03-34.03 18.76 0 34.03 15.26 34.03 34.03C657.58 1290.21 642.31 1305.47 623.55 1305.47zM623.55 1244.07c-15.09 0-27.38 12.28-27.38 27.37 0 15.09 12.28 27.38 27.38 27.38 15.09 0 27.37-12.28 27.37-27.38C650.92 1256.35 638.64 1244.07 623.55 1244.07z"
                opacity=".4" class="svgShape colorffffff-56 selectable"></path>
            <path fill="#030047"
                d="M1457.36 1690.14c-1.69 0-3.14-1.28-3.3-3l-44.23-446.07c-.18-1.83 1.15-3.46 2.98-3.64 1.9-.18 3.46 1.16 3.64 2.98l44.23 446.07c.18 1.83-1.15 3.46-2.98 3.64C1457.58 1690.13 1457.46 1690.14 1457.36 1690.14zM1642.06 1669.19c-1.69 0-3.14-1.28-3.3-3l-44.23-446.07c-.18-1.83 1.15-3.46 2.98-3.64 1.9-.18 3.46 1.15 3.64 2.98l44.23 446.07c.18 1.83-1.15 3.46-2.98 3.64C1642.29 1669.18 1642.17 1669.19 1642.06 1669.19zM1826.77 1648.24c-1.69 0-3.14-1.28-3.3-3l-44.23-446.07c-.18-1.83 1.15-3.46 2.98-3.64 1.9-.18 3.46 1.16 3.64 2.98l44.23 446.07c.18 1.83-1.15 3.46-2.98 3.64C1826.99 1648.23 1826.88 1648.24 1826.77 1648.24z"
                class="svgShape color030047-57 selectable"></path>
            <path fill="#030047" d="M1553.01,1212.39l6.86,74.85c1.25,13.68-7.78,25.72-20.22,26.86l-203.65,18.67
				c-12.4,1.14-23.51-9.06-24.76-22.74l-6.86-74.85c-1.25-13.68,7.81-25.73,20.22-26.86l203.65-18.67
				C1540.69,1188.51,1551.76,1198.72,1553.01,1212.39z" class="svgShape color030047-58 selectable"></path>
            <path fill="#030047" d="M1334.09,1336.18c-6.16,0-12.09-2.36-16.9-6.78c-5.29-4.86-8.58-11.63-9.26-19.07l-6.86-74.85
				c-1.42-15.5,9-29.18,23.22-30.48l203.66-18.67c14.15-1.31,26.95,10.24,28.38,25.75c0,0,0,0,0,0l6.86,74.85
				c1.42,15.5-9,29.18-23.23,30.48l-203.65,18.67C1335.57,1336.15,1334.83,1336.18,1334.09,1336.18z M1530.14,1192.89
				c-0.52,0-1.05,0.02-1.59,0.07l-203.66,18.67c-10.57,0.97-18.29,11.4-17.2,23.25l6.86,74.85c0.53,5.79,3.06,11.04,7.14,14.78
				c3.98,3.66,8.94,5.41,14.01,4.95l203.65-18.67c10.57-0.97,18.29-11.4,17.21-23.25l-6.86-74.85v0
				C1548.67,1201.44,1540.06,1192.89,1530.14,1192.89z" class="svgShape color030047-59 selectable"></path>
            <path fill="#fff"
                d="M1352.85 1250.4c-2.38 0-4.41-1.82-4.63-4.23-.23-2.56 1.65-4.83 4.21-5.06l151.43-13.88c2.53-.22 4.83 1.65 5.06 4.21.23 2.56-1.65 4.83-4.21 5.06l-151.43 13.88C1353.13 1250.4 1352.99 1250.4 1352.85 1250.4zM1355.3 1277.1c-2.38 0-4.41-1.82-4.63-4.23-.23-2.56 1.65-4.83 4.21-5.06l151.43-13.88c2.53-.23 4.83 1.65 5.06 4.21.23 2.56-1.65 4.83-4.21 5.06l-151.43 13.88C1355.58 1277.09 1355.44 1277.1 1355.3 1277.1zM1357.74 1303.8c-2.38 0-4.41-1.82-4.63-4.23-.23-2.56 1.65-4.83 4.21-5.06l54.04-4.95c2.51-.23 4.83 1.65 5.06 4.21.23 2.56-1.65 4.83-4.21 5.06l-54.04 4.95C1358.03 1303.79 1357.89 1303.8 1357.74 1303.8z"
                class="svgShape colorffffff-60 selectable"></path>
            <path fill="#ffcc3d" d="M1633.52,1430.47l6.86,74.85c1.25,13.68-7.78,25.72-20.22,26.86l-203.65,18.67
				c-12.4,1.14-23.51-9.06-24.76-22.74l-6.86-74.85c-1.25-13.68,7.81-25.73,20.22-26.86l203.65-18.67
				C1621.19,1406.59,1632.26,1416.79,1633.52,1430.47z" class="svgShape colorffcc3d-61 selectable"></path>
            <path fill="#fff"
                d="M1433.35 1468.48c-2.38 0-4.41-1.82-4.63-4.23-.23-2.56 1.65-4.83 4.21-5.06l151.42-13.88c2.53-.23 4.83 1.65 5.06 4.21.23 2.56-1.65 4.83-4.21 5.06l-151.42 13.88C1433.64 1468.47 1433.5 1468.48 1433.35 1468.48zM1435.8 1495.17c-2.38 0-4.41-1.82-4.63-4.23-.23-2.56 1.65-4.83 4.21-5.06L1586.8 1472c2.53-.23 4.83 1.65 5.06 4.21.23 2.56-1.65 4.83-4.21 5.06l-151.42 13.88C1436.09 1495.17 1435.94 1495.17 1435.8 1495.17zM1438.25 1521.87c-2.38 0-4.41-1.82-4.63-4.23-.23-2.56 1.65-4.83 4.21-5.06l54.04-4.95c2.5-.23 4.83 1.65 5.06 4.21.23 2.56-1.65 4.83-4.21 5.06l-54.04 4.95C1438.53 1521.86 1438.39 1521.87 1438.25 1521.87z"
                class="svgShape colorffffff-62 selectable"></path>
            <path fill="#605efd" d="M1887.49,1229.83l6.86,74.85c1.25,13.68-6.92,25.64-18.29,26.69l-186.26,17.07
				c-11.34,1.04-21.59-9.24-22.84-22.92l-6.86-74.85c-1.25-13.68,6.95-25.65,18.29-26.69l186.26-17.07
				C1876.02,1205.88,1886.24,1216.16,1887.49,1229.83z" class="svgShape color605efd-63 selectable"></path>
            <path fill="#fff"
                d="M1704.55 1266.27c-2.38 0-4.41-1.82-4.63-4.23-.23-2.56 1.65-4.83 4.21-5.06l138.49-12.69c2.52-.23 4.83 1.65 5.06 4.21s-1.65 4.83-4.21 5.06l-138.49 12.69C1704.83 1266.26 1704.69 1266.27 1704.55 1266.27zM1706.99 1292.96c-2.38 0-4.41-1.82-4.63-4.23-.23-2.56 1.65-4.83 4.21-5.06l138.49-12.69c2.52-.23 4.83 1.65 5.06 4.21s-1.65 4.83-4.21 5.06l-138.49 12.69C1707.28 1292.96 1707.14 1292.96 1706.99 1292.96zM1709.44 1319.66c-2.38 0-4.41-1.82-4.63-4.23-.23-2.56 1.65-4.83 4.21-5.06l49.42-4.53c2.51-.23 4.83 1.65 5.06 4.21.23 2.56-1.65 4.83-4.21 5.06l-49.42 4.53C1709.73 1319.65 1709.58 1319.66 1709.44 1319.66z"
                class="svgShape colorffffff-64 selectable"></path>
            <path fill="#030047" d="M1925.55,1534.86l6.86,74.85c1.25,13.68-7.78,25.72-20.22,26.86l-203.65,18.67
				c-12.4,1.14-23.51-9.06-24.76-22.74l-6.86-74.85c-1.25-13.68,7.81-25.73,20.22-26.86l203.65-18.67
				C1913.22,1510.98,1924.29,1521.19,1925.55,1534.86z" class="svgShape color030047-65 selectable"></path>
            <path fill="#030047" d="M1706.65,1658.65c-13.32,0-24.84-11.15-26.19-25.85l-6.86-74.85c-1.42-15.5,9-29.18,23.23-30.48
				l203.65-18.67c6.95-0.64,13.75,1.73,19.13,6.68c5.28,4.86,8.57,11.63,9.25,19.07v0l6.86,74.85c0.68,7.44-1.32,14.7-5.63,20.44
				c-4.39,5.84-10.64,9.41-17.6,10.04l-203.66,18.67C1708.11,1658.62,1707.37,1658.65,1706.65,1658.65z M1902.68,1515.36
				c-0.53,0-1.06,0.02-1.59,0.07l-203.65,18.67c-10.57,0.97-18.29,11.4-17.21,23.25l6.86,74.85c1.09,11.85,10.6,20.69,21.14,19.73
				l203.66-18.67c5.06-0.46,9.64-3.1,12.89-7.42c3.32-4.41,4.85-10.04,4.32-15.83l-6.86-74.85v0c-0.53-5.8-3.06-11.04-7.12-14.78
				C1911.55,1517.11,1907.19,1515.36,1902.68,1515.36z" class="svgShape color030047-66 selectable"></path>
            <path fill="#fff"
                d="M1725.38 1572.87c-2.38 0-4.41-1.82-4.63-4.23-.23-2.56 1.65-4.83 4.21-5.06l151.42-13.88c2.56-.23 4.83 1.65 5.06 4.21.23 2.56-1.65 4.83-4.21 5.06l-151.42 13.88C1725.67 1572.87 1725.53 1572.87 1725.38 1572.87zM1727.83 1599.57c-2.38 0-4.41-1.82-4.63-4.23-.23-2.56 1.65-4.83 4.21-5.06l151.42-13.88c2.56-.23 4.83 1.65 5.06 4.21.23 2.56-1.65 4.83-4.21 5.06l-151.42 13.88C1728.12 1599.56 1727.97 1599.57 1727.83 1599.57zM1730.28 1626.26c-2.38 0-4.41-1.82-4.63-4.23-.23-2.56 1.65-4.83 4.21-5.06l54.04-4.95c2.54-.22 4.83 1.65 5.06 4.21.23 2.56-1.65 4.83-4.21 5.06l-54.04 4.95C1730.56 1626.26 1730.42 1626.26 1730.28 1626.26z"
                class="svgShape colorffffff-67 selectable"></path>
            <circle cx="1062.29" cy="639.65" r="102.12" fill="#605efd" class="svgShape color605efd-68 selectable">
            </circle>
            <circle cx="1048.97" cy="608.3" r="23.45" fill="#fff" class="svgShape colorffffff-69 selectable"></circle>
            <path fill="#fff"
                d="M1115.97 674.96c10.37-4.41 12.59-18.07 4.22-25.62-15.28-13.77-37.72-18.27-57.89-9.7-20.17 8.57-32.5 27.86-33.19 48.41-.38 11.26 11 19.15 21.37 14.74L1115.97 674.96zM595.59 1078.04l-6.25-1.95c-8.56-2.66-17.7-2.79-26.34-.4l-201.31 55.57c-24.88 6.92-50.69-7.72-57.57-32.64l-49.1-177.72c-6.87-24.93 7.76-50.69 32.69-57.61l255.33-70.52c24.93-6.87 50.69 7.76 57.57 32.69l53.98 195.41C664.42 1056.53 630.94 1089 595.59 1078.04z"
                class="svgShape colorffffff-70 selectable"></path>
            <path fill="#030047" d="M349.12,1136.31c-8.53,0-16.95-2.2-24.58-6.52c-11.67-6.61-20.06-17.36-23.63-30.29l-49.1-177.71
				c-7.35-26.63,8.36-54.31,35.01-61.7l255.33-70.52c12.92-3.56,26.44-1.88,38.08,4.73c11.65,6.61,20.02,17.37,23.57,30.28
				l53.98,195.41c4.95,17.94-0.07,36.38-13.43,49.34c-13.36,12.96-31.97,17.4-49.74,11.89c0,0,0,0-0.01,0l-6.25-1.95
				c-7.94-2.47-16.4-2.6-24.47-0.37l-201.31,55.57C358.13,1135.7,353.6,1136.31,349.12,1136.31z M555.55,794.39
				c-3.88,0-7.79,0.52-11.63,1.58L288.59,866.5c-23.11,6.42-36.74,30.43-30.37,53.52l49.1,177.71c3.09,11.21,10.37,20.54,20.5,26.27
				c10.1,5.72,21.81,7.16,32.98,4.05l201.32-55.57c9.28-2.57,19.04-2.42,28.22,0.43l6.26,1.95c15.41,4.78,31.54,0.92,43.13-10.32
				c11.59-11.24,15.95-27.23,11.65-42.79l-53.98-195.41c-3.09-11.2-10.35-20.53-20.45-26.26
				C570.31,796.32,562.97,794.39,555.55,794.39z" class="svgShape color030047-71 selectable"></path>
            <path fill="#ffcc3d" d="M575.78,1016.54l-212.18,58.6c-4.44,1.23-9.03-1.38-10.26-5.82l-42.64-154.4
				c-1.23-4.44,1.38-9.03,5.82-10.26l212.18-58.6c4.44-1.23,9.03,1.38,10.26,5.82l42.64,154.4
				C582.82,1010.72,580.22,1015.32,575.78,1016.54z" class="svgShape colorffcc3d-72 selectable"></path>
            <path fill="#fff" d="M445.52,980.02c-3.14,0-6.3-0.68-9.27-2.11l-96.14-46.26c-1.65-0.8-2.35-2.78-1.55-4.44
				c0.8-1.65,2.78-2.36,4.44-1.56l96.14,46.26c6.67,3.21,14.78,0.97,18.86-5.21l58.74-89.03c1.01-1.53,3.07-1.96,4.61-0.94
				c1.53,1.01,1.96,3.07,0.94,4.61l-58.74,89.03C459.45,976.56,452.57,980.02,445.52,980.02z"
                class="svgShape colorffffff-73 selectable"></path>
            <path fill="#fff"
                d="M550.73 995.89c-.4 0-.81-.07-1.21-.23l-84.12-32.84c-1.71-.67-2.56-2.6-1.89-4.31.67-1.71 2.61-2.56 4.31-1.89l84.12 32.84c1.71.67 2.56 2.6 1.89 4.31C553.32 995.09 552.06 995.89 550.73 995.89zM372.77 1045.04c-.71 0-1.43-.23-2.04-.7-1.45-1.13-1.72-3.22-.59-4.67l55.38-71.37c1.13-1.45 3.21-1.72 4.67-.59 1.45 1.13 1.72 3.22.59 4.67l-55.38 71.37C374.74 1044.6 373.76 1045.04 372.77 1045.04z"
                class="svgShape colorffffff-74 selectable"></path>
            <path fill="#ffcc3d"
                d="M369.71 1315.75l-20.89 13.15c-9.81 6.11-22.69 3.18-28.82-6.55l-13.15-20.89c-6.13-9.74-3.2-22.63 6.54-28.75l20.91-13.22c9.74-6.13 22.62-3.2 28.82 6.55l13.13 20.96C382.38 1296.73 379.45 1309.62 369.71 1315.75zM724.87 707.91l-15.33 9.65c-7.2 4.49-16.65 2.34-21.15-4.81l-9.65-15.33c-4.5-7.15-2.35-16.6 4.8-21.1l15.34-9.7c7.15-4.5 16.6-2.35 21.15 4.81l9.64 15.38C734.16 693.96 732.01 703.41 724.87 707.91z"
                class="svgShape colorffcc3d-75 selectable"></path>
            <g>
                <path fill="#ffcc3d" d="M468.43,720.84l-10.1,6.36c-4.74,2.96-10.97,1.54-13.93-3.17l-6.36-10.1c-2.96-4.71-1.55-10.94,3.16-13.9
				l10.11-6.39c4.71-2.96,10.94-1.55,13.93,3.17l6.35,10.13C474.56,711.64,473.14,717.87,468.43,720.84z"
                    class="svgShape colorffcc3d-77 selectable"></path>
            </g>
            <g>
                <path fill="#ffcc3d" d="M768.2,505.46l-9.95,6.26c-4.67,2.91-10.81,1.52-13.73-3.12l-6.27-9.95c-2.92-4.64-1.52-10.78,3.12-13.7
				l9.96-6.3c4.64-2.92,10.78-1.52,13.73,3.12l6.26,9.99C774.24,496.4,772.84,502.53,768.2,505.46z"
                    class="svgShape colorffcc3d-79 selectable"></path>
            </g>
            <g>
                <path fill="#ffcc3d" d="M1172.24,498.6l-9.95,6.26c-4.67,2.91-10.81,1.52-13.73-3.12l-6.27-9.95c-2.92-4.64-1.52-10.78,3.12-13.7
				l9.96-6.3c4.64-2.92,10.78-1.52,13.73,3.12l6.26,9.99C1178.28,489.54,1176.88,495.68,1172.24,498.6z"
                    class="svgShape colorffcc3d-81 selectable"></path>
            </g>
        </svg></g>
</svg>