<svg id="SvgjsSvg1001" width="360" height="360" xmlns="http://www.w3.org/2000/svg" version="1.1"
    xmlns:xlink="http://www.w3.org/1999/xlink" xmlns:svgjs="http://svgjs.com/svgjs">
    <defs id="SvgjsDefs1002"></defs>
    <g id="SvgjsG1008">
        <svg xmlns="http://www.w3.org/2000/svg" enable-background="new 0 0 110 110"
            viewBox="0 0 110 110" width="360" height="360">
            <path fill="#001466"
                d="M25.8 67.8S20.9 82.5 14 83.6c-6.9 1.1-.2-5.4-.2-5.4l12-10.4zM26.5 53.8c0 3.2-2.6 5.8-5.8 5.8-3.2 0-5.8-2.6-5.8-5.8s2.6-5.8 5.8-5.8c3.2 0 5.8 2.6 5.8 5.8z"
                class="svgShape color001466-0 selectable"></path>
            <path fill="#001466"
                d="M35.5 49.5c0 3.2-2.6 5.8-5.8 5.8-3.2 0-5.8-2.6-5.8-5.8s2.6-5.8 5.8-5.8c3.2 0 5.8 2.6 5.8 5.8z"
                class="svgShape color001466-1 selectable"></path>
            <path fill="#fff" stroke="#001466" stroke-linecap="round" stroke-linejoin="round"
                stroke-miterlimit="10" stroke-width=".5"
                d="m27.8 61.7-.2-4.1s4.6 1.1 5.2-3.5c.6-4.6-1.6-11.4-9.6-9 0 0-5.4-.4-4.2 8 .2.7.4.9 1 1.3 1.7 1.3 2.6 3.4 2.3 5.5v1.8"
                class="svgShape colorffffff-2 svgStroke colorStroke001466-2 selectable"></path>
            <path fill="#001466"
                d="M26.1 47.1c0 3.2-2.6 5.8-5.8 5.8-3.2 0-5.8-2.6-5.8-5.8s2.6-5.8 5.8-5.8c3.2-.1 5.8 2.5 5.8 5.8z"
                class="svgShape color001466-3 selectable"></path>
            <path fill="#001466"
                d="M32.1 44.9c0 2.1-1.7 3.8-3.8 3.8-2.1 0-3.8-1.7-3.8-3.8 0-2.1 1.7-3.8 3.8-3.8 2.1 0 3.8 1.7 3.8 3.8z"
                class="svgShape color001466-4 selectable"></path>
            <path fill="#fff" stroke="#001466" stroke-linecap="round" stroke-linejoin="round"
                stroke-miterlimit="10" stroke-width=".5"
                d="M22.7 52.4c-.3-.8-1.4-1.3-2.4-1.1-1.1.2-1.7 1-1.4 1.8.3.8 1.4 1.3 2.4 1.1"
                class="svgShape colorffffff-5 svgStroke colorStroke001466-5 selectable"></path>
            <path fill="none" stroke="#001466" stroke-linecap="round" stroke-linejoin="round"
                stroke-miterlimit="10" stroke-width=".5"
                d="M30.9 54.9s-1 1.1-1.9 0M31.9 50.9c0-.2-.4-.6-.6-.6-.2 0-.4.4-.4.5M27.7 51.2s-.4-.6-.6-.6c-.2 0-.4.5-.4.5M31.9 48.9s-.9-.6-2 .4M27.8 49.4s-.9-.6-2 .4M29.2 49.9c0 .6-.1 1.3.1 1.9.2.6.6 1.2 1.2 1.5h-1.4M20.3 52.5l.4.3M22.5 83.7c-.2.8.4.9.6.8 2.9-1.9 4.8-1.2 4.8-1.2 2.3.8 3.9.6 4.8.4.7-.2 1.4-.2 2.1 0 9.6 1.9 10.1-.9 9.5-4.5-.7-4.1-7.4-17.9-10.4-19.2-3.2-1.4-6.3.9-6.3.9l-9.5-1.3c-.8-.1-1.6-.1-2.5 0-2.4.3-13.1 19.5-6.4 23.1"
                class="svgStroke colorStroke001466-6 selectable"></path>
            <path fill="none" stroke="#001466" stroke-linecap="round" stroke-linejoin="round"
                stroke-miterlimit="10" stroke-width=".5"
                d="M27.2 81.8s-1.9-.4-4.6 1.9c-.2.2-.8 0-.7-.7.1-.8 1.3-2.6 4.6-2.8"
                class="svgStroke colorStroke001466-7 selectable"></path>
            <path fill="none" stroke="#001466" stroke-linecap="round" stroke-linejoin="round"
                stroke-miterlimit="10" stroke-width=".5"
                d="M22.2 82.3c-.2.1-.3.2-.5.4s-.8 0-.7-.8c.1-.7 1.4-2.3 4.2-2.5-.8-.3-2-.6-3.9-.3-.2 0-.7-.4-.2-1 .5-.6 2.2-1.5 5.1.2 1.1.6 1.1 1.7 5.2 1 4.2-.6 6.1-.8 7.3-.1"
                class="svgStroke colorStroke001466-8 selectable"></path>
            <path fill="none" stroke="#001466" stroke-linecap="round" stroke-linejoin="round"
                stroke-miterlimit="10" stroke-width=".5"
                d="m33 66-1 1.9s3.6 6.2-3 8.8l-1 2.7M10.2 67l6.6 3.6M29.3 60s1.8 4.1-2.3 5.8"
                class="svgStroke colorStroke001466-9 selectable"></path>
            <path fill="#fff" stroke="#001466" stroke-linecap="round" stroke-linejoin="round"
                stroke-miterlimit="10" stroke-width=".5"
                d="M11.7 74.8h0c.7.3 1.6 0 2-.6 0 0 7.4-8.5 8.7-11.1.6-1.3-1-2.7-3.4-3.2-.6-.2-1.2-.6-1.4-1.2-.6-1.4-.6-3-.2-3.1.3-.1.6.2.9.7-.9-1.7-.1-2 .3-1.7.3.2.5.6.7 1-.9-1.7 0-2 .3-1.6.3.3.7.9 1.1 1.6-.9-1.7 0-1.9.4-1.6.4.4.9 1.2 1.3 2 .6 1.2 1.5 2.2 2.6 2.9l.9.6c3.8 1.8 1.3 5.7 1.3 5.7s-11.3 21-18 17.4"
                class="svgShape colorffffff-10 svgStroke colorStroke001466-10 selectable"></path>
            <path fill="none" stroke="#001466" stroke-linecap="round" stroke-linejoin="round"
                stroke-miterlimit="10" stroke-width=".5"
                d="M19.4 55.7c.6 1 1.1 2.4 1.1 2.4s0 0 0 0 .1.3.5.5M20.8 55.6c.6 1 1.1 2.1 1.1 2.1s0 0 0 0 .1.3.5.5M18.3 56.3c.4.7.8 1.8 1 2.4v.1s.1.2.5.4"
                class="svgStroke colorStroke001466-11 selectable"></path>
            <path fill="#ff7757" stroke="#001466" stroke-linecap="round" stroke-linejoin="round"
                stroke-miterlimit="10" stroke-width=".5"
                d="M28.5 85.3c2.1.3 10 .2 13.6.1 0 0 0 0 0 0 1.5.1 3.6.1 5.9.1-2.7 0-5.1-.1-6-.3-2-.4 3.5-16.8 5-16.8h-1.6c-1.1-.2-4.6 9.7-5.3 14.6-3 0-8.8.1-9.3.1-.8.2-3 2.1-2.3 2.2z"
                class="svgShape colorff7757-12 svgStroke colorStroke001466-12 selectable"></path>
            <path fill="#fff" stroke="#001466" stroke-linecap="round" stroke-linejoin="round"
                stroke-miterlimit="10" stroke-width=".5"
                d="M67.4 70.3c.5.6-3.5 10.3-5.1 13.9-.3.6-.9 1-1.5 1.1 0 0-15.6.5-18.8 0-2-.4 3.6-17 5-16.8 6.5 1.2 18.5-.2 20.4 1.8z"
                class="svgShape colorffffff-13 svgStroke colorStroke001466-13 selectable"></path>
            <ellipse cx="55.2" cy="77.2" fill="#e6f3fb" rx="2" ry="1.6"
                transform="rotate(-42.106 55.18 77.156)" class="svgShape colore6f3fb-14 selectable"></ellipse>
            <path fill="none" stroke="#001466" stroke-linecap="round" stroke-linejoin="round"
                stroke-miterlimit="10" stroke-width=".5"
                d="M78 58.1c-.3-.1-.6-.3-.8-.5-1.6-1.1-2 .2.3 1.4-1.6-1-1.9.2.1 1.3-1.2-.3-1 .9 1.7 1.9 0 0 1.8 1.1 4.9 1.4l14 5.7c.5.2 1 .2 1.5.2 2.4-.3 3.9-2.9 2.9-5.2l-5.5-13.6c-1.3-3.5-3.9-6.4-7.6-5.9l-8.4.1c-2.9.3-5.2 2.4-5.9 5.2l-1.7 7-.9 3.5-9.1-3.8c-.9-.4-1.7-1.1-2.2-2-.5-.8-1.3-1.9-2.8-2.9-2.8-1.8-7.7-2.2-7.9-1.6-.3.7 3.8 1.6 3.8 1.6s-4.4-.7-4.6.1c-.1.4 1.2.8 4 1 0 0-4 .4-4 1.1.1.5 1.8.2 4.1-.2 0 0-2.7 1.3-2.3 1.9.4.5 2.4-1.3 3.1-.9 1.5.8 1.6 3.5 4.8 4.8.5.2 1.1.3 1.6.6L72.7 68c1.9 1.3 4.4.2 4.8-2l.8-2.8 1.4 9.9"
                class="svgStroke colorStroke001466-15 selectable"></path>
            <path fill="#fdb870"
                d="M57.6 36.3c.5 1 .9 20.9.1 22-.8 1.2-16.6 1.9-18.3.4-.6-.5-1-20.1-.4-21.6 1-2.5 18-1.9 18.6-.8z"
                class="svgShape colorfdb870-16 selectable"></path>
            <path fill="#fff"
                d="M46 38.2c.1.3.2 5.9 0 6.2-.2.3-4.7.5-5.2.1-.2-.1-.3-5.7-.1-6.1.4-.7 5.2-.5 5.3-.2z"
                class="svgShape colorffffff-17 selectable"></path>
            <path fill="#113ffb" stroke="#001466" stroke-linecap="round" stroke-linejoin="round"
                stroke-miterlimit="10" stroke-width=".5"
                d="M79 53.6c3.1-.3 6.4 11 5.7 11.2-3 1-15.3.3-17.3 0-3.1-.5-7.3-10.4-5.7-11.2 2.8-1.5 14.3.3 17.3 0z"
                class="svgShape color113ffb-18 svgStroke colorStroke001466-18 selectable"></path>
            <path fill="#fff" stroke="#001466" stroke-linecap="round" stroke-linejoin="round"
                stroke-miterlimit="10" stroke-width=".5"
                d="m87 64.7-2.8-1.1c-3-.3-4.9-1.4-4.9-1.4-2.7-1-2.9-2.2-1.7-1.9-1.9-1-1.7-2.1-.4-1.4-1.9-1.2-1.5-2.3 0-1.3.2.1.4.3.7.4-2.3-1.5-1.8-3-.3-1.7 1.9 1.6 5.6 2.4 5.6 2.4L82 56.2s1.7 1 3.3 3.5l.2.1"
                class="svgShape colorffffff-19 svgStroke colorStroke001466-19 selectable"></path>
            <path fill="none" stroke="#001466" stroke-linecap="round" stroke-linejoin="round"
                stroke-miterlimit="10" stroke-width=".5"
                d="m85.5 59.8 9.9 2.2-3.3-7.4M85.2 59.7l.3.1M96.1 68.5l1.6 3.5M62.6 59l-.9 1.7"
                class="svgStroke colorStroke001466-20 selectable"></path>
            <path fill="#fff" stroke="#001466" stroke-linecap="round" stroke-linejoin="round"
                stroke-miterlimit="10" stroke-width=".5"
                d="M60.8 53.7s-1.7-2.1-2.4-2.6c-3.1-2.6-6.7-2-.5 1.7 0 0-1.5 1.9-.1 3.4l.9.9"
                class="svgShape colorffffff-21 svgStroke colorStroke001466-21 selectable"></path>
            <path fill="none" stroke="#001466" stroke-linecap="round" stroke-linejoin="round"
                stroke-miterlimit="10" stroke-width=".5"
                d="m77.9 58.1.1.1c.5.3 1.1.6 1.8.9M77.6 59.1s1 .7 2 .8M77.6 60.4s.8.6 1.6.7M77.6 59.1c-.1-.1-.2-.1-.3-.2M77.9 58.1l.1.1M61.7 60.7h0"
                class="svgStroke colorStroke001466-22 selectable"></path>
            <path fill="#fff" stroke="#001466" stroke-linecap="round" stroke-linejoin="round"
                stroke-miterlimit="10" stroke-width=".5"
                d="m87.6 60.3-.9 4.3M82.9 48.9c.4-1.2 1.3-4.8 1.1-6.2 0 0-3.1.8-4.7-1.7-1.7-2.6-.4-10 4.1-10.8 4.5-.8 7.9 1.2 7.9 1.2l-2.4 6.7s2.6-1.9 3 .7c.4 2.6-3 2.2-3 2.2l-.5 3.8-5.5 4.1z"
                class="svgShape colorffffff-23 svgStroke colorStroke001466-23 selectable"></path>
            <path fill="#001466"
                d="M80 33.1s-.1-3.8-1.6-5.5.8-3 3.2 0c0 0-.3-1.7.8-2.7 1.1-1.1 5.1.3 6 2.2 0 0 3.6-2.1 4 3.5 0 0 4-.7-.7 7.7 0 0-.9-1.6-2.9 0 0 0-1.1-3.1.9-6.3 0 0-5.6 1.6-7.3-1.3-1.2.3-1.8 1.4-2.4 2.4z"
                class="svgShape color001466-24 selectable"></path>
            <path fill="none" stroke="#001466" stroke-linecap="round" stroke-linejoin="round"
                stroke-miterlimit="10" stroke-width=".5"
                d="M82.1 39.5c-.2-.2-.4-.4-.7-.4-.3 0-.5.1-.7.2M82.3 35.8c-.2.3-.4.6-.6 1-.1.2-.2.4-.1.6.1.1.2.2.4.2"
                class="svgStroke colorStroke001466-25 selectable"></path>
            <path fill="#001466"
                d="M84.3 36.3c0 .3-.3.4-.5.4-.3 0-.4-.2-.4-.5s.3-.4.5-.4c.3 0 .5.2.4.5zM81.2 35.3c0 .3-.3.4-.5.4-.3 0-.4-.2-.4-.5s.3-.4.5-.4c.2.1.4.3.4.5z"
                class="svgShape color001466-26 selectable"></path>
            <path fill="none" stroke="#001466" stroke-linecap="round" stroke-linejoin="round"
                stroke-miterlimit="10" stroke-width=".5"
                d="M83.6 34.7s1.1-.4 1.5.6M80.5 33.8s1-.4 1.5.6M90.1 39.7c-.3-.2-.3-.6 0-.9"
                class="svgStroke colorStroke001466-27 selectable"></path>
            <ellipse cx="71.4" cy="58.9" fill="#fff" rx="1.4" ry="2"
                transform="rotate(-47.111 71.398 58.86)" class="svgShape colorffffff-28 selectable"></ellipse>
            <path fill="none" stroke="#001466" stroke-linecap="round" stroke-linejoin="round"
                stroke-miterlimit="10" stroke-width=".5"
                d="M42.7 42.1c0 .4.3.7.7.7.4 0 .7-.3.7-.7 0-.4-.3-.7-.7-.7-.4 0-.7-.3-.7-.7 0-.4.3-.7.7-.7.4 0 .7.3.7.7M43.4 39.9v-.3M43.4 43.1v-.3"
                class="svgStroke colorStroke001466-29 selectable"></path>
            <path fill="none" stroke="#fff" stroke-linecap="round" stroke-linejoin="round"
                stroke-miterlimit="10" stroke-width=".5" d="M48.7 39.5h7M48.7 41.4h7M48.7 43.2h7"
                class="svgStroke colorStrokeffffff-30 selectable"></path>
            <path fill="#fff"
                d="M44.1 45.7c.1.1.1 2.5 0 2.6-.1.1-2.9.2-3.2.1-.1-.1-.2-2.4 0-2.6.2-.2 3.2-.2 3.2-.1z"
                class="svgShape colorffffff-31 selectable"></path>
            <path fill="none" stroke="#fff" stroke-linecap="round" stroke-linejoin="round"
                stroke-miterlimit="10" stroke-width=".5" d="M46.6 46.5h9M46.6 47.7h5.2"
                class="svgStroke colorStrokeffffff-32 selectable"></path>
            <path fill="#fff"
                d="M44.1 49.8c.1.1.1 2.5 0 2.6-.1.1-2.9.2-3.2.1-.1-.1-.2-2.4 0-2.6.2-.3 3.2-.2 3.2-.1z"
                class="svgShape colorffffff-33 selectable"></path>
            <path fill="none" stroke="#fff" stroke-linecap="round" stroke-linejoin="round"
                stroke-miterlimit="10" stroke-width=".5" d="M46.6 50.6h7.1M46.6 51.8h5.2"
                class="svgStroke colorStrokeffffff-34 selectable"></path>
            <path fill="#fff"
                d="M44.1 53.9c.1.1.1 2.5 0 2.6-.1.1-2.9.2-3.2.1-.1-.1-.2-2.4 0-2.6.2-.3 3.2-.2 3.2-.1z"
                class="svgShape colorffffff-35 selectable"></path>
            <path fill="none" stroke="#fff" stroke-linecap="round" stroke-linejoin="round"
                stroke-miterlimit="10" stroke-width=".5" d="M46.6 54.6h9M46.6 55.9h5.2"
                class="svgStroke colorStrokeffffff-36 selectable"></path>
            <path fill="none" stroke="#001466" stroke-linecap="round" stroke-linejoin="round"
                stroke-miterlimit="10" stroke-width=".5"
                d="m42.2 47.1.2.3.5-.6M42.2 51.2l.2.2.5-.5M42.2 55.2l.2.3.5-.6"
                class="svgStroke colorStroke001466-37 selectable"></path>
            <path fill="#ff7757"
                d="M73.5 26.7V33c0 .3-.2.5-.5.5h-1.4l.6 1.5c.1.3-.2.5-.5.4l-3.8-1.9h-5.4c-.3 0-.5-.2-.5-.5v-6.4c0-.3.2-.5.5-.5 1.5 0 .6.1 2.1.1 1.9 0 3.7.1 5.6.2 1 .1 1.9-.1 2.9 0 .2-.2.4.1.4.3z"
                class="svgShape colorff7757-38 selectable"></path>
            <path fill="#fff"
                d="M65.7 29.7c0 .5-.4.8-.8.8-.5 0-.8-.4-.8-.8 0-.5.4-.8.8-.8s.8.3.8.8zM68.5 29.7c0 .5-.4.8-.8.8-.5 0-.8-.4-.8-.8 0-.5.4-.8.8-.8s.8.3.8.8zM71.3 29.7c0 .5-.4.8-.8.8-.5 0-.8-.4-.8-.8 0-.5.4-.8.8-.8s.8.3.8.8z"
                class="svgShape colorffffff-39 selectable"></path>
            <path fill="#fff" stroke="#001466" stroke-linecap="round" stroke-linejoin="round"
                stroke-miterlimit="10" stroke-width=".5" d="m95.4 62 2.5.9"
                class="svgShape colorffffff-40 svgStroke colorStroke001466-40 selectable"></path>
            <path fill="#001466"
                d="m85.6 64.2 11.6 6.6-1.1-2.3zM29.7 76.4l1.2 3-2.9.1c.6-1.7 1-3 1.7-3.1z"
                class="svgShape color001466-41 selectable"></path>
        </svg>
    </g>
</svg>